<?xml version="1.0" encoding="UTF-8"?>
<svg version="1.1" xmlns="http://www.w3.org/2000/svg" width="512" height="512">
<path d="M0 0 C1.66280722 -0.00339833 1.66280722 -0.00339833 3.3592065 -0.00686532 C7.05750032 -0.01317324 10.75575719 -0.01237802 14.45405579 -0.0115509 C17.11243831 -0.01454441 19.77081798 -0.01791934 22.42919922 -0.02172852 C28.89170086 -0.03001263 35.35419338 -0.03278235 41.81669988 -0.03334089 C47.07380356 -0.03381716 52.33090424 -0.03587741 57.58800697 -0.03904152 C72.5157236 -0.04784231 87.44343306 -0.05246185 102.3711523 -0.05171105 C103.57669636 -0.05165111 103.57669636 -0.05165111 104.80659485 -0.05158997 C105.61128021 -0.05154909 106.41596556 -0.0515082 107.24503533 -0.05146609 C120.27800153 -0.05105987 133.31093881 -0.0606247 146.34389665 -0.07472833 C159.74845833 -0.08911881 173.15300593 -0.09599704 186.55757552 -0.09513456 C194.07416971 -0.09480349 201.59073358 -0.09751082 209.10732079 -0.10831261 C215.50840328 -0.11745288 221.90944172 -0.11956409 228.31052794 -0.11280318 C231.57101425 -0.10955556 234.83139937 -0.1105208 238.0918808 -0.11815643 C272.475659 -0.19343241 300.25723525 6.3367362 325.99043274 30.38371277 C345.96859465 50.76722869 354.8621657 77.24723051 354.81945801 105.44796753 C354.82172356 106.55650567 354.82398912 107.66504382 354.82632333 108.80717403 C354.83263125 112.50546785 354.83183603 116.20372472 354.83100891 119.90202332 C354.83400242 122.56040584 354.83737735 125.21878551 354.84118652 127.87716675 C354.84947063 134.33966839 354.85224036 140.80216091 354.8527989 147.26466741 C354.85327517 152.52177109 354.85533542 157.77887177 354.85849953 163.0359745 C354.86730031 177.96369113 354.87191985 192.89140059 354.87116905 207.81911983 C354.87110912 209.02466389 354.87110912 209.02466389 354.87104797 210.25456238 C354.87100709 211.05924774 354.87096621 211.86393309 354.87092409 212.69300286 C354.87051788 225.72596906 354.88008271 238.75890634 354.89418634 251.79186418 C354.90857682 265.19642586 354.91545504 278.60097346 354.91459256 292.00554305 C354.9142615 299.52213724 354.91696883 307.03870111 354.92777061 314.55528831 C354.93691089 320.95637081 354.9390221 327.35740925 354.93226119 333.75849547 C354.92901357 337.01898178 354.92997881 340.2793669 354.93761444 343.53984833 C355.01289042 377.92362653 348.48272181 405.70520278 324.43574524 431.43840027 C299.20499401 456.16740361 267.88794158 460.60999782 233.95918274 460.52189636 C231.30595336 460.52596935 228.65274891 460.53120848 225.99952698 460.53782654 C219.58300569 460.55106563 213.16659053 460.54833047 206.75006533 460.53958862 C201.52848227 460.53277336 196.30692865 460.53191181 191.08534241 460.53516006 C190.33807998 460.53561976 189.59081755 460.53607946 188.82091081 460.53655309 C187.30217758 460.53751241 185.78344436 460.53848505 184.26471114 460.53947087 C170.07172773 460.54799598 155.87880275 460.53823607 141.68582892 460.52206977 C129.54579785 460.50866921 117.40585288 460.51099812 105.26582336 460.52482605 C91.11861317 460.54093302 76.971454 460.54717227 62.82423592 460.53798926 C61.31153998 460.53703376 59.79884403 460.53609064 58.28614807 460.53516006 C57.17015498 460.53446582 57.17015498 460.53446582 56.03161657 460.53375756 C50.82506596 460.53118297 45.6185481 460.53550535 40.41200256 460.54259872 C34.05441034 460.5510711 27.69692902 460.5486145 21.33934927 460.53275649 C18.10459692 460.52494998 14.87006358 460.52330439 11.63530731 460.53170395 C-18.25889381 460.60212407 -46.12131726 456.55908966 -69.31425476 436.13371277 C-70.54208679 435.12050964 -70.54208679 435.12050964 -71.79472351 434.08683777 C-91.10118224 417.68383097 -102.43176463 393.70635296 -105.10913146 368.68747556 C-105.4802135 364.06754457 -105.45498283 359.45179849 -105.44796753 354.81945801 C-105.45023309 353.71091986 -105.45249864 352.60238172 -105.45483285 351.46025151 C-105.46114077 347.76195769 -105.46034555 344.06370081 -105.45951843 340.36540222 C-105.46251194 337.7070197 -105.46588687 335.04864002 -105.46969604 332.39025879 C-105.47798016 325.92775715 -105.48074988 319.46526463 -105.48130842 313.00275812 C-105.48178469 307.74565445 -105.48384494 302.48855376 -105.48700905 297.23145103 C-105.49580984 282.30373441 -105.50042937 267.37602495 -105.49967857 252.4483057 C-105.49963862 251.64460966 -105.49959866 250.84091362 -105.4995575 250.01286316 C-105.49949617 248.80583512 -105.49949617 248.80583512 -105.49943361 247.57442268 C-105.4990274 234.54145648 -105.50859223 221.5085192 -105.52269586 208.47556136 C-105.53708634 195.07099968 -105.54396456 181.66645208 -105.54310209 168.26188248 C-105.54277102 160.74528829 -105.54547835 153.22872442 -105.55628014 145.71213722 C-105.56542041 139.31105472 -105.56753162 132.91001629 -105.56077071 126.50893006 C-105.55752309 123.24844375 -105.55848833 119.98805864 -105.56612396 116.72757721 C-105.64139994 82.34379901 -99.11123133 54.56222276 -75.06425476 28.82902527 C-54.68073884 8.85086336 -28.20073701 -0.04270769 0 0 Z M-56.69316101 57.86418152 C-71.63760184 77.51597941 -72.91417928 97.75948043 -72.81596375 121.51896667 C-72.81975352 124.14735197 -72.82525896 126.77573527 -72.83233643 129.40411377 C-72.84616984 135.7629849 -72.83878718 142.12165558 -72.82366084 148.48051693 C-72.8066817 155.90469861 -72.81002582 163.328832 -72.81375492 170.75302713 C-72.81961516 184.00919429 -72.80553334 197.26526606 -72.7808075 210.52140808 C-72.75688244 223.34989495 -72.74980939 236.17825447 -72.76029968 249.00675964 C-72.77173776 263.01916492 -72.77360412 277.0315115 -72.75920159 291.04391611 C-72.75767594 292.54112712 -72.75615558 294.03833814 -72.75464058 295.53554916 C-72.75388276 296.27196935 -72.75312495 297.00838954 -72.75234417 297.76712549 C-72.74762439 302.92798199 -72.74943624 308.08881206 -72.75370598 313.24966812 C-72.759179 320.20854763 -72.7482792 327.16724925 -72.72675133 334.12609673 C-72.72121492 336.67087019 -72.72068901 339.21566056 -72.72570419 341.7604351 C-72.76526089 364.72121415 -71.13843384 383.52966333 -56.31425476 402.13371277 C-55.5910907 403.10437683 -55.5910907 403.10437683 -54.85331726 404.09465027 C-44.27680112 417.60569112 -26.88818635 424.82029173 -10.31425476 427.13371277 C-1.52105961 427.84198665 7.3165929 427.68197705 16.13105774 427.65129089 C18.76606651 427.65672076 21.40103058 427.66370563 24.036026 427.67253113 C30.41160143 427.69019274 36.78698707 427.68653212 43.16256952 427.67488056 C48.35034379 427.66579733 53.53806537 427.6646432 58.72584534 427.66897583 C59.83904921 427.66989523 59.83904921 427.66989523 60.97474205 427.6708332 C62.48300856 427.67211227 63.99127505 427.67340913 65.49954152 427.67472357 C79.59808329 427.68609315 93.69652052 427.67307281 107.79504514 427.6515221 C119.85697141 427.63365441 131.91874362 427.63675954 143.98066711 427.65519714 C158.03338335 427.67666819 172.08600828 427.68499485 186.13873863 427.67274809 C187.64104079 427.67147407 189.14334296 427.67021659 190.64564514 427.66897583 C191.38454802 427.66835873 192.12345089 427.66774163 192.88474476 427.66710582 C198.05820057 427.66367156 203.23159782 427.66943942 208.40504456 427.67889404 C214.72136658 427.69018506 221.03749013 427.68692651 227.35378981 427.66577107 C230.5682154 427.65535493 233.78224853 427.65317714 236.99668121 427.66436768 C262.0079864 427.74336342 283.55505777 424.60502476 302.28291321 406.56877136 C316.6344081 391.88758672 321.84326662 373.16939095 321.82618713 353.21855164 C321.82915826 352.12876212 321.83212938 351.0389726 321.83519053 349.91615915 C321.84385283 346.26926816 321.84538371 342.6224101 321.84687805 338.97550964 C321.85150803 336.35845368 321.85653293 333.74139838 321.86192322 331.12434387 C321.87547633 324.01654159 321.8815268 316.90874498 321.88593388 309.80093193 C321.88870195 305.35691077 321.89294037 300.91289177 321.89743805 296.46887207 C321.90962777 284.1483804 321.91992702 271.82789045 321.92331314 259.50739288 C321.92353271 258.71959235 321.92375227 257.93179181 321.92397849 257.12011853 C321.92419677 256.33050106 321.92441505 255.54088359 321.92463994 254.72733831 C321.9250834 253.1274449 321.92552996 251.52755149 321.92597961 249.92765808 C321.92620104 249.13406649 321.92642247 248.3404749 321.92665061 247.52283508 C321.9305945 234.67793271 321.94803734 221.83308722 321.97133914 208.9882068 C321.99510667 195.77919556 322.00751748 182.57021279 322.00868106 169.36117983 C322.0095949 161.95349306 322.01527322 154.54588037 322.03350067 147.13821411 C322.04897491 140.82749455 322.05397935 134.51687195 322.04576257 128.206137 C322.04188149 124.99207383 322.04432429 121.77824432 322.05681992 118.56419754 C322.14092945 95.57072627 320.53249258 76.76608493 305.68574524 58.13371277 C304.96258118 57.16304871 304.96258118 57.16304871 304.22480774 56.17277527 C293.6482916 42.66173442 276.25967683 35.44713381 259.68574524 33.13371277 C250.89255009 32.42543889 242.05489757 32.58544848 233.24043274 32.61613464 C230.60542397 32.61070478 227.9704599 32.60371991 225.33546448 32.59489441 C218.95988905 32.57723279 212.58450341 32.58089341 206.20892096 32.59254497 C201.02114669 32.6016282 195.8334251 32.60278233 190.64564514 32.59844971 C189.53244127 32.59753031 189.53244127 32.59753031 188.39674842 32.59659234 C186.88848192 32.59531326 185.38021543 32.59401641 183.87194896 32.59270197 C169.77340719 32.58133239 155.67496995 32.59435272 141.57644534 32.61590344 C129.51451907 32.63377113 117.45274686 32.630666 105.39082336 32.61222839 C91.33810713 32.59075735 77.2854822 32.58243068 63.23275185 32.59467745 C61.73044969 32.59595146 60.22814752 32.59720895 58.72584534 32.59844971 C57.98694246 32.59906681 57.24803959 32.59968391 56.48674572 32.60031971 C51.3132899 32.60375398 46.13989266 32.59798612 40.96644592 32.58853149 C34.6501239 32.57724048 28.33400035 32.58049903 22.01770067 32.60165447 C18.80327508 32.61207061 15.58924195 32.6142484 12.37480927 32.60305786 C-14.51083022 32.51814221 -38.20032325 36.63841207 -56.69316101 57.86418152 Z " fill="#000000" transform="translate(131.3142547607422,25.866287231445313)"/>
<path d="M0 0 C3.88446678 2.58964452 6.69907021 5.64814041 8.8125 9.875 C8.90439837 11.30682823 8.93443458 12.74286948 8.93275452 14.17764282 C8.93481651 15.53223854 8.93481651 15.53223854 8.93692017 16.91419983 C8.93332489 17.9075383 8.92972961 18.90087677 8.92602539 19.92431641 C8.92617142 20.96824051 8.92631744 22.01216461 8.9264679 23.08772278 C8.92576922 26.55069023 8.91797891 30.0136044 8.91015625 33.4765625 C8.90829191 35.87267019 8.90686808 38.26877827 8.90586853 40.66488647 C8.90204461 46.98108975 8.89221538 53.29727014 8.88116455 59.61346436 C8.87094774 66.05480642 8.86637033 72.49615217 8.86132812 78.9375 C8.85059302 91.58334311 8.83370945 104.22917034 8.8125 116.875 C9.3584186 116.87131283 9.9043372 116.86762566 10.46679878 116.86382675 C23.76274927 116.77541067 37.05864811 116.70951441 50.35482979 116.66775131 C56.7848417 116.64687588 63.21464145 116.61855832 69.64453125 116.57324219 C75.84962932 116.52978395 82.0545233 116.50586256 88.25976181 116.49549103 C90.6272592 116.48809971 92.9947454 116.47366629 95.36215591 116.45207977 C98.67804361 116.42304706 101.9930877 116.41904408 105.30908203 116.42089844 C106.2880394 116.40651733 107.26699677 116.39213623 108.27561951 116.37731934 C113.97712816 116.4118251 117.3127366 117.01960533 121.8125 120.875 C125.89392118 125.3976559 127.13614536 128.66646353 127.0234375 134.8203125 C126.53394252 139.58835617 124.28069043 142.66612677 120.75 145.6875 C117.23613821 148.30420559 115.77142196 149.00024464 111.50985718 148.99525452 C110.15526146 148.99731651 110.15526146 148.99731651 108.77330017 148.99942017 C107.7799617 148.99582489 106.78662323 148.99222961 105.76318359 148.98852539 C104.71925949 148.98867142 103.67533539 148.98881744 102.59977722 148.9889679 C99.13680977 148.98826922 95.6738956 148.98047891 92.2109375 148.97265625 C89.81482981 148.97079191 87.41872173 148.96936808 85.02261353 148.96836853 C78.70641025 148.96454461 72.39022986 148.95471538 66.07403564 148.94366455 C59.63269358 148.93344774 53.19134783 148.92887033 46.75 148.92382812 C34.10415689 148.91309302 21.45832966 148.89620945 8.8125 148.875 C8.81618717 149.4209186 8.81987434 149.9668372 8.82367325 150.52929878 C8.91208933 163.82524927 8.97798559 177.12114811 9.01974869 190.41732979 C9.04062412 196.8473417 9.06894168 203.27714145 9.11425781 209.70703125 C9.15771605 215.91212932 9.18163744 222.1170233 9.19200897 228.32226181 C9.19940029 230.6897592 9.21383371 233.0572454 9.23542023 235.42465591 C9.26445294 238.74054361 9.26845592 242.0555877 9.26660156 245.37158203 C9.28098267 246.3505394 9.29536377 247.32949677 9.31018066 248.33811951 C9.27566469 254.04131511 8.66438995 257.37107412 4.8125 261.875 C0.59893861 265.77254428 -1.96173412 266.71012845 -7.5625 267.125 C-12.17373139 266.80698404 -15.33263413 265.74986443 -18.63671875 262.41015625 C-21.83655567 258.6602041 -23.31344603 256.43290762 -23.30775452 251.57235718 C-23.30981651 250.21776146 -23.30981651 250.21776146 -23.31192017 248.83580017 C-23.30652725 247.34579247 -23.30652725 247.34579247 -23.30102539 245.82568359 C-23.30117142 244.78175949 -23.30131744 243.73783539 -23.3014679 242.66227722 C-23.30076922 239.19930977 -23.29297891 235.7363956 -23.28515625 232.2734375 C-23.28329191 229.87732981 -23.28186808 227.48122173 -23.28086853 225.08511353 C-23.27704461 218.76891025 -23.26721538 212.45272986 -23.25616455 206.13653564 C-23.24594774 199.69519358 -23.24137033 193.25384783 -23.23632812 186.8125 C-23.22559302 174.16665689 -23.20870945 161.52082966 -23.1875 148.875 C-23.7334186 148.87868717 -24.2793372 148.88237434 -24.84179878 148.88617325 C-38.13774927 148.97458933 -51.43364811 149.04048559 -64.72982979 149.08224869 C-71.1598417 149.10312412 -77.58964145 149.13144168 -84.01953125 149.17675781 C-90.22462932 149.22021605 -96.4295233 149.24413744 -102.63476181 149.25450897 C-105.0022592 149.26190029 -107.3697454 149.27633371 -109.73715591 149.29792023 C-113.05304361 149.32695294 -116.3680877 149.33095592 -119.68408203 149.32910156 C-120.6630394 149.34348267 -121.64199677 149.35786377 -122.65061951 149.37268066 C-128.35212816 149.3381749 -131.6877366 148.73039467 -136.1875 144.875 C-140.27104816 140.34998717 -141.50379418 137.0843471 -141.40234375 130.9296875 C-140.80715996 125.23756618 -137.33718096 121.50597084 -133.1875 117.875 C-130.37094272 116.93614757 -128.67689608 116.75133131 -125.76460266 116.75474548 C-124.86016418 116.75337082 -123.95572571 116.75199615 -123.02388 116.75057983 C-122.03413681 116.75417511 -121.04439362 116.75777039 -120.0246582 116.76147461 C-118.98058807 116.76132858 -117.93651794 116.76118256 -116.86080933 116.7610321 C-113.40327897 116.76172982 -109.94580222 116.76951569 -106.48828125 116.77734375 C-104.0936028 116.77920843 -101.69892396 116.7806321 -99.304245 116.78163147 C-92.99627635 116.78545272 -86.68833066 116.79527969 -80.38037109 116.80633545 C-73.94564118 116.81655798 -67.51090756 116.8211309 -61.07617188 116.82617188 C-48.44660478 116.83690228 -35.81705361 116.85378226 -23.1875 116.875 C-23.19118717 116.3290814 -23.19487434 115.7831628 -23.19867325 115.22070122 C-23.28708933 101.92475073 -23.35298559 88.62885189 -23.39474869 75.33267021 C-23.41562412 68.9026583 -23.44394168 62.47285855 -23.48925781 56.04296875 C-23.53271605 49.83787068 -23.55663744 43.6329767 -23.56700897 37.42773819 C-23.57440029 35.0602408 -23.58883371 32.6927546 -23.61042023 30.32534409 C-23.63945294 27.00945639 -23.64345592 23.6944123 -23.64160156 20.37841797 C-23.65598267 19.3994606 -23.67036377 18.42050323 -23.68518066 17.41188049 C-23.6506749 11.71037184 -23.04289467 8.3747634 -19.1875 3.875 C-13.37010796 -1.37484159 -7.3959011 -2.61031804 0 0 Z " fill="#000000" transform="translate(263.1875,123.125)"/>
</svg>
