<?xml version="1.0" encoding="UTF-8"?>
<svg version="1.1" xmlns="http://www.w3.org/2000/svg" width="512" height="512">
<path d="M0 0 C8.16518021 6.464101 13.87183791 16.52108614 16.09375 26.66015625 C17.51169372 42.87165345 14.77986268 55.06543585 4.3515625 67.78515625 C-3.36813347 76.24158669 -13.94774682 81.0692697 -25.2734375 81.91015625 C-35.02342407 82.22917422 -44.61655439 81.18661999 -52.90625 75.66015625 C-56.96779358 75.86365739 -59.14242637 78.46286949 -61.96875 81.16015625 C-65.69741242 84.66234348 -69.48128834 88.01116369 -73.46875 91.22265625 C-77.04453469 94.10864418 -80.51026318 97.06460429 -83.90625 100.16015625 C-88.09466806 103.97378651 -92.42428482 107.5602744 -96.828125 111.12109375 C-101.21760112 114.74185451 -105.50023269 118.48210389 -109.7800293 122.23144531 C-112.74752892 124.82392476 -115.69980133 127.36179956 -118.90625 129.66015625 C-118.77347656 130.2428125 -118.64070313 130.82546875 -118.50390625 131.42578125 C-115.04842101 147.46730395 -114.8917713 161.37597159 -123.90625 175.66015625 C-131.71630331 186.23284792 -141.90875173 193.13187626 -154.97265625 195.12890625 C-168.99490949 196.58576373 -181.54227437 193.37540575 -192.62109375 184.48046875 C-201.21701014 176.21351422 -207.67015125 165.59316794 -207.9609375 153.359375 C-207.96788713 151.12506814 -207.94285769 148.89406985 -207.90625 146.66015625 C-208.76669922 146.45277832 -208.76669922 146.45277832 -209.64453125 146.24121094 C-215.8783588 144.64491595 -221.91714479 142.65905259 -227.96875 140.48828125 C-228.7728833 140.20021606 -229.5770166 139.91215088 -230.40551758 139.61535645 C-233.76479215 138.40822595 -237.12205823 137.19579099 -240.47607422 135.97412109 C-242.9499933 135.07498763 -245.42773315 134.18714705 -247.90625 133.30078125 C-249.04525757 132.88061737 -249.04525757 132.88061737 -250.20727539 132.45196533 C-254.49763915 130.84452819 -254.49763915 130.84452819 -258.90625 131.66015625 C-259.56625 132.52640625 -260.22625 133.39265625 -260.90625 134.28515625 C-266.3152365 141.06681606 -274.78798468 145.09649352 -282.90625 147.66015625 C-283.48246094 147.84320313 -284.05867187 148.02625 -284.65234375 148.21484375 C-293.95806326 150.05340878 -304.1640709 149.22119067 -312.90625 145.66015625 C-313.61910156 145.37398437 -314.33195313 145.0878125 -315.06640625 144.79296875 C-316.69329617 144.11375029 -318.30248565 143.39230954 -319.90625 142.66015625 C-325.95128489 147.45741841 -331.77685004 152.38621773 -337.40625 157.66015625 C-342.1448579 162.09855248 -347.02744538 166.25158045 -352.09375 170.31640625 C-355.30474805 172.99223796 -358.35654137 175.80373901 -361.40625 178.66015625 C-366.13293352 183.08726124 -370.99838936 187.23457697 -376.05859375 191.28125 C-380.08106126 194.64158294 -383.88495891 198.225091 -387.66796875 201.8515625 C-391.69476318 205.66015625 -391.69476318 205.66015625 -393.90625 205.66015625 C-393.6175 206.51996094 -393.32875 207.37976563 -393.03125 208.265625 C-388.472825 222.77977684 -388.62452033 235.542125 -395.59375 249.34765625 C-401.50697166 259.54687395 -410.36781816 266.45738504 -421.40625 270.53515625 C-432.65877764 273.50383258 -445.52754351 272.9736567 -455.90625 267.66015625 C-456.76605469 267.23605469 -457.62585938 266.81195313 -458.51171875 266.375 C-469.54691869 260.38160094 -475.99020713 251.1413232 -480.015625 239.43359375 C-482.93007391 227.08553391 -481.73188285 214.35486159 -475.5859375 203.28125 C-468.72466028 192.20197449 -459.57384343 185.20047968 -447.09375 181.28515625 C-435.92862341 179.02415984 -424.55380066 180.09017534 -414.53125 185.47265625 C-412.06298277 186.95179713 -412.06298277 186.95179713 -410.05859375 186.01953125 C-407.35096143 184.30944768 -405.17638421 182.2928746 -402.84375 180.09765625 C-399.17374396 176.68406984 -395.44626115 173.42060442 -391.53125 170.28515625 C-386.7348429 166.41796762 -382.2358354 162.31034909 -377.74267578 158.10205078 C-373.55313433 154.20033095 -369.18461175 150.58698138 -364.71875 147.00390625 C-360.93534889 143.85107199 -357.36370063 140.4940061 -353.77075195 137.12792969 C-348.67955903 132.38603495 -343.3569734 127.98578043 -337.90625 123.66015625 C-338.48629984 120.04398966 -339.15988879 116.48112869 -339.96875 112.91015625 C-342.56285376 99.74311442 -340.08860619 87.89087081 -332.984375 76.48828125 C-325.65729264 66.51683835 -315.83481831 60.53859897 -303.90625 57.66015625 C-289.39747082 56.42475525 -276.99991678 58.33934336 -265.2734375 67.6015625 C-255.97958758 75.68383792 -251.14700753 85.46262381 -249.23046875 97.57421875 C-249.03487366 98.74561401 -249.03487366 98.74561401 -248.83532715 99.94067383 C-248.51826598 101.84595635 -248.21121331 103.75289993 -247.90625 105.66015625 C-241.43363321 107.97207589 -234.95528408 110.2673285 -228.47265625 112.55102539 C-226.2675199 113.33006318 -224.06372995 114.11292293 -221.86132812 114.8996582 C-218.69746583 116.02910004 -215.5290342 117.1447598 -212.359375 118.2578125 C-211.37382629 118.61295425 -210.38827759 118.96809601 -209.37286377 119.33399963 C-208.4522113 119.6544072 -207.53155884 119.97481476 -206.58300781 120.30493164 C-205.7747052 120.59139053 -204.96640259 120.87784943 -204.13360596 121.17298889 C-201.61531251 121.72379011 -200.29475557 121.59351599 -197.90625 120.66015625 C-196.19516311 119.03912657 -194.53371694 117.36512162 -192.90625 115.66015625 C-183.53095869 106.93895503 -172.29964447 103.12090937 -159.5546875 103.40234375 C-153.23222388 104.01780481 -147.13032447 105.52790015 -141.46875 108.41015625 C-138.27081448 109.9701248 -137.25796205 109.74294135 -133.90625 108.66015625 C-131.3030788 106.68610689 -131.3030788 106.68610689 -128.78125 104.16015625 C-127.81342106 103.24244143 -126.84330783 102.32713048 -125.87109375 101.4140625 C-125.3797998 100.9514502 -124.88850586 100.48883789 -124.38232422 100.01220703 C-122.11800847 97.93814474 -119.73593322 96.02158233 -117.34375 94.09765625 C-113.76796531 91.21166832 -110.30223682 88.25570821 -106.90625 85.16015625 C-102.71783194 81.34652599 -98.38821518 77.7600381 -93.984375 74.19921875 C-89.59489888 70.57845799 -85.31226731 66.83820861 -81.0324707 63.08886719 C-78.06497108 60.49638774 -75.11269867 57.95851294 -71.90625 55.66015625 C-72.23109375 54.47873047 -72.23109375 54.47873047 -72.5625 53.2734375 C-76.14253767 39.26819753 -76.30123036 25.68350687 -69.24609375 12.69140625 C-62.54417686 2.53106578 -52.79941333 -5.82938162 -40.8359375 -8.90625 C-25.72329272 -11.14292143 -12.60778405 -8.86161871 0 0 Z M-45.78125 23.66015625 C-49.71976673 29.22041516 -50.79718357 33.91612743 -49.90625 40.66015625 C-47.72379492 47.84788257 -42.90013428 52.34790745 -36.53125 56.03515625 C-29.71095985 57.65903486 -24.13010308 57.01146175 -17.90625 53.66015625 C-13.11728798 50.65313359 -10.5733019 47.00007116 -8.90625 41.66015625 C-8.01847098 35.49950791 -8.36173568 29.90906828 -11.49609375 24.44921875 C-14.75051881 20.32033598 -18.93870956 17.31600306 -23.90625 15.66015625 C-33.3450965 14.59275842 -39.44938853 16.55521867 -45.78125 23.66015625 Z M-311.28125 89.97265625 C-314.92935225 94.65455315 -316.16784588 99.19303441 -315.84375 105.09765625 C-314.99141117 110.84849407 -312.48484835 115.38126341 -308.125 119.234375 C-302.16462491 123.64151675 -297.1196562 124.42002545 -289.90625 123.66015625 C-283.39289531 121.6881198 -279.1643714 117.816154 -275.90234375 111.8125 C-273.61793651 106.65977874 -273.35416467 102.08299097 -274.90625 96.66015625 C-277.66825953 90.65809707 -281.34413325 86.69565153 -287.09375 83.41015625 C-296.55198913 80.88795915 -304.59121228 82.79783319 -311.28125 89.97265625 Z M-177.90625 135.66015625 C-181.37641816 141.14340538 -183.88632393 146.04465725 -182.90625 152.66015625 C-181.11737312 159.30455609 -178.43354152 163.87618577 -172.71875 167.91015625 C-167.11976934 170.83499689 -161.45063554 171.33027187 -155.34375 169.78515625 C-149.73424165 167.61024161 -146.09944631 163.66696405 -142.90625 158.66015625 C-140.33041203 152.60501474 -140.53059492 147.1356678 -142.734375 140.98828125 C-145.44434762 135.60446897 -149.41512387 132.02070844 -154.96875 129.72265625 C-163.27980312 127.15436536 -171.86714113 129.29460906 -177.90625 135.66015625 Z M-450.76953125 211.6015625 C-455.95240681 218.31827235 -456.83521142 224.24611486 -455.90625 232.66015625 C-453.64973553 238.85292242 -449.39687665 242.3047733 -443.90625 245.66015625 C-438.67197275 247.40491533 -432.79031073 247.78469758 -427.58203125 245.75390625 C-421.74363146 242.28422866 -416.6700811 237.39478409 -414.90625 230.66015625 C-414.42669613 224.809599 -414.82453012 219.77254585 -417.90625 214.66015625 C-422.87538512 209.18550306 -427.68405957 205.71103239 -435.15625 205.28515625 C-441.22891754 205.46703315 -446.49939421 207.15238407 -450.76953125 211.6015625 Z " fill="#000000" transform="translate(484.90625,14.33984375)"/>
<path d="M0 0 C0.86062042 -0.00511093 1.72124084 -0.01022186 2.60794067 -0.01548767 C5.45166994 -0.02938307 8.29515684 -0.02842697 11.13891602 -0.02612305 C13.11662384 -0.03000995 15.09433083 -0.03434461 17.07203674 -0.03910828 C21.2171601 -0.04657033 25.36219828 -0.04627926 29.50732422 -0.04101562 C34.8181639 -0.03522043 40.12865489 -0.05215334 45.43943691 -0.0753603 C49.52380918 -0.09009469 53.6080974 -0.09096974 57.69249153 -0.08785057 C59.65050001 -0.08836391 61.60851318 -0.09360402 63.5664959 -0.10366249 C66.30497754 -0.11600407 69.04277917 -0.10924896 71.78125 -0.09765625 C72.58920517 -0.10529999 73.39716034 -0.11294373 74.229599 -0.12081909 C78.82814556 -0.07780884 81.83853233 0.36363608 85.45532227 3.2746582 C88.48080285 6.54253185 88.83132156 8.76763693 88.835639 13.17211056 C88.84407894 14.38572952 88.85251888 15.59934849 88.86121458 16.84974378 C88.85541919 18.19832792 88.84933815 19.54691085 88.84300232 20.89549255 C88.84717393 22.3266913 88.85265049 23.75788673 88.85932213 25.18907601 C88.87381834 29.12679728 88.86951908 33.06431 88.86215532 37.00204289 C88.85743623 41.24684516 88.8699223 45.49160149 88.88017273 49.73638916 C88.89739083 58.05414138 88.89819452 66.37181817 88.89295983 74.68958359 C88.88892251 81.44860718 88.89035646 88.20760842 88.89570808 94.96663094 C88.89645651 95.92769571 88.89720493 96.88876049 88.89797603 97.87894844 C88.89950747 99.83119265 88.90104581 101.78343686 88.902591 103.73568106 C88.91632692 122.05380197 88.91087067 140.37188019 88.89940578 158.69000012 C88.8894721 175.45734681 88.90241448 192.22458317 88.92633998 208.99191283 C88.95070811 226.19877394 88.96034449 243.40558361 88.95368725 260.61246163 C88.95018996 270.2767683 88.95246065 279.94099008 88.96993828 289.60528374 C88.98463171 297.8322789 88.98533325 306.05912942 88.96786737 314.28612166 C88.95933135 318.48523704 88.9572709 322.68409372 88.97251892 326.88319588 C88.98629904 330.72556277 88.9816898 334.5674477 88.96227968 338.40978623 C88.95849871 339.80140043 88.9615017 341.19305262 88.97189134 342.58463316 C88.98499339 344.47350577 88.97113557 346.36250816 88.95589352 348.25136471 C88.95578618 349.30140145 88.95567884 350.3514382 88.95556825 351.43329424 C88.32616735 355.00824952 86.93925505 356.67652814 84.45532227 359.2746582 C80.21005095 361.7483277 75.78268717 361.57070384 70.99658203 361.56518555 C70.15692902 361.57190277 69.317276 361.57862 68.45217896 361.58554077 C65.68363487 361.60449897 62.91533342 361.60844364 60.14672852 361.6105957 C58.21768596 361.61702434 56.28864439 361.62375275 54.35960388 361.63076782 C50.31881448 361.64273455 46.27811055 361.64644918 42.23730469 361.64526367 C37.06438495 361.64506033 31.89201368 361.6723806 26.71922398 361.70680809 C22.73603303 361.72906353 18.75297446 361.73310165 14.76972771 361.73204422 C12.86277308 361.73440152 10.95581487 361.74323231 9.04892159 361.75870895 C6.38004403 361.77834479 3.71235445 361.77254097 1.04345703 361.76049805 C0.25936966 361.77173706 -0.52471771 361.78297607 -1.33256531 361.79455566 C-6.49946574 361.73542628 -9.49780406 360.75878211 -13.54467773 357.2746582 C-16.26581895 353.51346585 -16.92042884 350.91694321 -16.92499447 346.30380344 C-16.93343441 345.09926032 -16.94187435 343.89471719 -16.95057005 342.65367275 C-16.94456 341.33384347 -16.93854996 340.01401418 -16.93235779 338.65419006 C-16.9365307 337.23521533 -16.94200799 335.81624392 -16.9486776 334.39727873 C-16.96315658 330.49795137 -16.95887989 326.59883494 -16.95151079 322.69949591 C-16.94678747 318.4942288 -16.95928153 314.28900788 -16.9695282 310.08375549 C-16.9867379 301.84534768 -16.98755173 293.60701607 -16.98231529 285.36859495 C-16.97827645 278.67348635 -16.97971375 271.97840029 -16.98506355 265.28329277 C-16.98581197 264.33097829 -16.9865604 263.37866381 -16.9873315 262.39749132 C-16.98886295 260.46296537 -16.9904013 258.52843943 -16.99194647 256.59391349 C-17.00567932 238.44600853 -17.00022827 220.29814666 -16.98876125 202.15024268 C-16.9788277 185.54206462 -16.99177026 168.93399796 -17.01569545 152.32583708 C-17.04006887 135.27827113 -17.04969867 118.2307571 -17.04304272 101.18317407 C-17.03954663 91.609953 -17.04180823 82.03681762 -17.05929375 72.4636097 C-17.07399376 64.31425424 -17.07468003 56.16504482 -17.05722284 48.0156923 C-17.04869231 43.85695053 -17.04661309 39.69846988 -17.06187439 35.53974152 C-17.07567071 31.73313563 -17.07102414 27.92701579 -17.05163515 24.12043839 C-17.0460695 22.09008065 -17.06018873 20.05969848 -17.07498926 18.02938706 C-16.98561077 7.03589566 -16.98561077 7.03589566 -12.54467773 2.2746582 C-8.92899589 -0.58642363 -4.4072576 -0.01348011 0 0 Z M8.45532227 25.2746582 C8.45532227 127.9046582 8.45532227 230.5346582 8.45532227 336.2746582 C26.93532227 336.2746582 45.41532227 336.2746582 64.45532227 336.2746582 C64.45532227 233.6446582 64.45532227 131.0146582 64.45532227 25.2746582 C45.97532227 25.2746582 27.49532227 25.2746582 8.45532227 25.2746582 Z " fill="#000000" transform="translate(419.544677734375,136.725341796875)"/>
<path d="M0 0 C0.82960739 -0.0049649 1.65921478 -0.00992981 2.51396179 -0.01504517 C5.2608625 -0.02966022 8.00770545 -0.03646789 10.75463867 -0.04199219 C12.66411847 -0.04774442 14.57359824 -0.05350215 16.483078 -0.05926514 C20.48872141 -0.06977342 24.49434475 -0.07561714 28.5 -0.07910156 C33.6280273 -0.08458424 38.75578881 -0.10860818 43.8837328 -0.13707352 C47.82916534 -0.15571515 51.77453408 -0.16090632 55.72000694 -0.16243744 C57.61021057 -0.16546133 59.50041314 -0.17348094 61.3905735 -0.18662262 C64.03793057 -0.20371409 66.6846411 -0.20179529 69.33203125 -0.1953125 C70.10990997 -0.20452728 70.8877887 -0.21374207 71.6892395 -0.22323608 C76.49601006 -0.18644083 79.7735166 0.62277317 83.86010742 3.16113281 C87.12429993 6.76300041 87.98419682 9.92968023 87.99153519 14.71458912 C87.99537633 15.65389548 87.99921748 16.59320184 88.00317502 17.56097203 C88.00230854 18.59480588 88.00144206 19.62863973 88.00054932 20.69380188 C88.00352044 21.79060734 88.00649156 22.88741281 88.00955272 24.0174548 C88.01825999 27.71159533 88.01974968 31.40570353 88.02124023 35.09985352 C88.02586695 37.74077509 88.03087065 40.38169369 88.0362854 43.02261353 C88.04987145 50.21062434 88.05589383 57.39862957 88.06029606 64.58665109 C88.06305796 69.07413301 88.06729521 73.56161278 88.07180023 78.04909325 C88.08399314 90.4715235 88.09429249 102.89395202 88.09767532 115.31638813 C88.09800467 116.50914717 88.09800467 116.50914717 88.09834068 117.72600235 C88.09866809 118.92162828 88.09866809 118.92162828 88.09900212 120.14140826 C88.09944559 121.75662569 88.09989215 123.37184312 88.1003418 124.98706055 C88.10056323 125.78826555 88.10078466 126.58947056 88.1010128 127.41495451 C88.10496122 140.3987547 88.12241648 153.38249879 88.14570132 166.36627731 C88.16940982 179.69376976 88.18187694 193.02123404 88.18304324 206.34874791 C88.18396027 213.83277802 88.18971965 221.31673502 88.20786285 228.80074501 C88.22325707 235.17330288 88.22838834 241.54576505 88.22012475 247.91833798 C88.21621582 251.16973789 88.21878894 254.42090455 88.2311821 257.67228889 C88.24383282 261.19753062 88.23806182 264.722275 88.2276001 268.24751282 C88.2396847 269.78822534 88.2396847 269.78822534 88.25201344 271.36006337 C88.20852082 277.61106945 87.47427576 282.00234607 83.36010742 286.97363281 C79.6140692 289.93924641 75.04043049 289.31598334 70.52075195 289.32226562 C69.67003113 289.32723053 68.8193103 289.33219543 67.94281006 289.33731079 C65.12617181 289.3519258 62.30958987 289.35873305 59.49291992 289.36425781 C57.536204 289.37000948 55.5794881 289.37576721 53.62277222 289.38153076 C49.51877581 289.39203864 45.41479898 289.39788281 41.31079102 289.40136719 C36.05263189 289.40685375 30.79473147 289.43088618 25.53665352 289.45933914 C21.49432621 289.47796377 17.45206127 289.48317101 13.40969467 289.48470306 C11.47121642 289.48773013 9.53273929 289.49576049 7.59430313 289.50888824 C4.88208577 289.52594624 2.17050122 289.52406921 -0.54174805 289.51757812 C-1.34192352 289.52679291 -2.142099 289.53600769 -2.96652222 289.54550171 C-7.55825533 289.51108363 -10.58130182 289.14089979 -14.13989258 286.16113281 C-18.79452672 280.78715028 -18.705761 276.15709434 -18.64109802 269.22973633 C-18.64663242 268.12628404 -18.65216682 267.02283175 -18.65786892 265.88594151 C-18.67148611 262.18707852 -18.65649958 258.48888901 -18.64160156 254.79003906 C-18.64538435 252.1388056 -18.65073143 249.48761721 -18.65797424 246.83639526 C-18.67190179 240.3821159 -18.6643542 233.9280323 -18.64929866 227.47376227 C-18.63243145 219.95645708 -18.63564972 212.43920055 -18.63939274 204.92188227 C-18.64527043 191.50842885 -18.63110335 178.09506931 -18.60644531 164.68164062 C-18.5825248 151.66793295 -18.57544116 138.65435071 -18.5859375 125.640625 C-18.5973487 111.46724365 -18.59927428 97.29392031 -18.5848394 83.12053967 C-18.58331358 81.60899544 -18.58179322 80.09745122 -18.5802784 78.58590698 C-18.57952058 77.84221141 -18.57876277 77.09851584 -18.57798199 76.33228403 C-18.57324072 71.0931875 -18.57508949 65.85411689 -18.5793438 60.61502075 C-18.58427222 54.22970469 -18.5782783 47.84450719 -18.5584495 41.45921826 C-18.54858275 38.20173708 -18.54507591 34.94447316 -18.55134201 31.68697739 C-18.55728424 28.15530076 -18.54480919 24.6241578 -18.52757263 21.0925293 C-18.53358268 20.06354302 -18.53959272 19.03455675 -18.54578489 17.97438908 C-18.49813041 12.61738424 -18.18035363 8.77674285 -15.13989258 4.16113281 C-10.51202645 -0.03287087 -5.97637187 0.00852188 0 0 Z M6.86010742 25.16113281 C6.86010742 104.03113281 6.86010742 182.90113281 6.86010742 264.16113281 C25.34010742 264.16113281 43.82010742 264.16113281 62.86010742 264.16113281 C62.86010742 185.29113281 62.86010742 106.42113281 62.86010742 25.16113281 C44.38010742 25.16113281 25.90010742 25.16113281 6.86010742 25.16113281 Z " fill="#000000" transform="translate(155.139892578125,214.8388671875)"/>
<path d="M0 0 C1.25947952 -0.00788544 1.25947952 -0.00788544 2.54440308 -0.01593018 C5.3130772 -0.02910674 8.08117378 -0.02039964 10.84985352 -0.01025391 C12.77889618 -0.01227551 14.7079381 -0.01518766 16.63697815 -0.01895142 C20.67781864 -0.02337175 24.71846002 -0.01695371 28.75927734 -0.00292969 C33.93213244 0.01415049 39.10452015 0.00432652 44.27735806 -0.01364708 C48.26055911 -0.02450251 52.2436499 -0.02103029 56.22685432 -0.0132637 C58.13379026 -0.01126597 60.04073629 -0.01370596 61.94766045 -0.02070236 C64.61641717 -0.02834449 67.28442394 -0.01667359 69.953125 0 C71.12925606 -0.00910904 71.12925606 -0.00910904 72.32914734 -0.0184021 C77.1242924 0.0369341 80.36067526 0.79721402 84.54125977 3.38818359 C89.13201945 8.29554739 88.68831161 13.76940442 88.68170166 20.17414856 C88.68467278 21.07100882 88.6876439 21.96786908 88.69070506 22.89190692 C88.69939122 25.90345191 88.70090024 28.91495714 88.70239258 31.92651367 C88.70702078 34.08320704 88.71204544 36.23989959 88.71743774 38.39659119 C88.73056282 44.26027338 88.73700682 50.12394412 88.7414484 55.98763871 C88.74437871 59.65014885 88.74848342 63.31265585 88.75295258 66.97516441 C88.76662726 78.43182925 88.77629428 89.88848692 88.78015447 101.34515935 C88.78463649 114.5750229 88.80219125 127.80478319 88.83115506 141.03461534 C88.8527611 151.2580775 88.86285816 161.48151058 88.86419559 171.70499533 C88.8652443 177.81244765 88.87116653 183.91980291 88.8890152 190.02723122 C88.90547735 195.77196776 88.90766033 201.51653408 88.89887619 207.26128578 C88.89810485 209.36919103 88.90246129 211.47710537 88.91233444 213.58498764 C88.92502798 216.46395082 88.91919108 219.34230874 88.90875244 222.2212677 C88.92083705 223.47060308 88.92083705 223.47060308 88.93316579 224.74517757 C88.88840064 230.02893164 88.04091119 233.70429623 85.54125977 238.38818359 C80.8321281 242.67205005 76.91297631 242.96363134 70.86132812 242.88989258 C69.58458977 242.89799706 69.58458977 242.89799706 68.28205872 242.90626526 C65.48138165 242.91872617 62.68173779 242.90228067 59.88110352 242.88427734 C57.92867479 242.88443238 55.97624575 242.88592211 54.02381897 242.88868713 C49.93761544 242.8900699 45.85176344 242.87753237 41.765625 242.85473633 C36.53102652 242.82633335 31.2970111 242.82909582 26.06236935 242.84182644 C22.03287281 242.84878443 18.0035108 242.84099325 13.97403145 242.82856941 C12.04394611 242.82405742 10.11384632 242.82371591 8.18375969 242.82763481 C5.48613796 242.83054867 2.78931731 242.81403244 0.09179688 242.79223633 C-0.70366547 242.79673798 -1.49912781 242.80123962 -2.31869507 242.80587769 C-6.8910964 242.74456572 -9.91222807 242.34908564 -13.45874023 239.38818359 C-17.68704173 234.28718942 -18.0331764 230.53812965 -17.9666748 224.203125 C-17.97291477 223.28751612 -17.97915473 222.37190723 -17.98558378 221.42855263 C-18.0015184 218.36535394 -17.98890748 215.30295046 -17.97631836 212.23974609 C-17.98173925 210.04172298 -17.98886173 207.84370351 -17.99755859 205.64569092 C-18.01579857 199.67880093 -18.00872146 193.7121875 -17.99604225 187.74529266 C-17.98591818 181.5020625 -17.99530629 175.25885609 -18.00158691 169.015625 C-18.00933126 157.85939798 -17.99689731 146.7032725 -17.97654957 135.54706979 C-17.95867901 125.43610267 -17.96178327 115.32531927 -17.98022461 105.21435547 C-18.00164076 93.46690535 -18.00959338 81.7195447 -17.99777555 69.97207451 C-17.99153806 63.75569116 -17.99071217 57.53943431 -18.00392151 51.32305908 C-18.01547235 45.47890877 -18.00746786 39.63510554 -17.98434448 33.79099274 C-17.97905336 31.64558743 -17.98057803 29.50015293 -17.98939514 27.35475922 C-18.00031795 24.42719194 -17.98662597 21.50073841 -17.9666748 18.57324219 C-17.97559769 17.72323954 -17.98452058 16.87323689 -17.99371386 15.99747658 C-17.92306863 10.65707724 -16.98236105 7.63843605 -13.45874023 3.38818359 C-9.3037438 -0.07362368 -5.19248188 -0.0401118 0 0 Z M7.54125977 25.38818359 C7.54125977 88.74818359 7.54125977 152.10818359 7.54125977 217.38818359 C26.02125977 217.38818359 44.50125977 217.38818359 63.54125977 217.38818359 C63.54125977 154.02818359 63.54125977 90.66818359 63.54125977 25.38818359 C45.06125977 25.38818359 26.58125977 25.38818359 7.54125977 25.38818359 Z " fill="#000000" transform="translate(287.458740234375,258.61181640625)"/>
<path d="M0 0 C1.22999977 -0.00744736 1.22999977 -0.00744736 2.48484802 -0.01504517 C5.19384606 -0.02963392 7.90278556 -0.0364629 10.61181641 -0.04199219 C12.49744671 -0.04774583 14.383077 -0.05350354 16.26870728 -0.05926514 C20.2212959 -0.06976541 24.17386424 -0.07561462 28.12646484 -0.07910156 C33.1860836 -0.08458779 38.24543347 -0.10862268 43.30496788 -0.13707352 C47.19978617 -0.15571426 51.09453983 -0.16090624 54.98939896 -0.16243744 C56.854483 -0.16546066 58.719566 -0.17347801 60.58460617 -0.18662262 C63.19593431 -0.20371507 65.80660706 -0.20179528 68.41796875 -0.1953125 C69.18492569 -0.20452728 69.95188263 -0.21374207 70.74208069 -0.22323608 C75.52111222 -0.1861506 78.77413793 0.64322212 82.83837891 3.16113281 C86.47426583 7.17314597 86.96385549 10.65906662 86.9788208 15.94831848 C86.98453094 17.1554097 86.99024109 18.36250092 86.99612427 19.60617065 C86.99736961 20.94586171 86.99849471 22.28555289 86.99951172 23.62524414 C87.00414053 25.03465403 87.00916527 26.44406267 87.01455688 27.85346985 C87.02767714 31.68415093 87.03412514 35.51481449 87.03856754 39.34551454 C87.04149896 41.73912622 87.04560391 44.13273312 87.05007172 46.52634239 C87.06374586 54.01639814 87.07341284 61.50644296 87.07727361 68.99651033 C87.08175387 77.64079657 87.09930055 86.28492465 87.1282742 94.9291628 C87.1498958 101.61206759 87.15997815 108.29492791 87.16131473 114.97786731 C87.16236244 118.9687185 87.16826303 122.95942101 87.18613434 126.95023537 C87.2026233 130.70542225 87.20476664 134.4603488 87.19599533 138.21555901 C87.19522538 139.5917849 87.19956215 140.96802483 87.20945358 142.34421539 C87.22219034 144.22709963 87.21449829 146.11008866 87.20587158 147.99299622 C87.20807142 149.57171367 87.20807142 149.57171367 87.2103157 151.18232441 C86.6507778 155.66361324 85.12823599 159.04766118 81.69676208 162.0098877 C77.83149784 163.56666519 74.2069369 163.59582242 70.10424805 163.58105469 C69.23533432 163.58952423 68.36642059 163.59799377 67.47117615 163.60671997 C64.60514604 163.63007705 61.73965316 163.63111247 58.87353516 163.62988281 C56.87723069 163.63698494 54.88092827 163.64468402 52.8846283 163.6529541 C48.7025688 163.66639579 44.52069809 163.66796896 40.33862305 163.66210938 C34.98396643 163.65621229 29.63021619 163.68680691 24.2757349 163.72722626 C20.15355056 163.75309651 16.0315847 163.7559813 11.90933037 163.75233459 C9.93538573 163.75402633 7.96143106 163.76367403 5.98756599 163.78147888 C3.2250644 163.80365639 0.4644005 163.79397339 -2.2980957 163.77636719 C-3.51630508 163.79626205 -3.51630508 163.79626205 -4.75912476 163.81655884 C-8.73565413 163.75777952 -11.38933596 163.40244894 -14.59059143 160.93518066 C-18.60399132 156.6048676 -19.41075553 153.0366277 -19.4223175 147.21609497 C-19.42940231 146.02452789 -19.43648712 144.83296082 -19.44378662 143.60528564 C-19.4413092 142.30645447 -19.43883179 141.00762329 -19.4362793 139.66943359 C-19.44062885 138.28105394 -19.44581281 136.89267668 -19.45176697 135.50430298 C-19.46514307 131.73975919 -19.46573712 127.97531588 -19.46320367 124.21075296 C-19.46213287 121.06472813 -19.46702018 117.91872354 -19.47180909 114.77270305 C-19.48289978 107.3482905 -19.48334435 99.92392854 -19.47729492 92.49951172 C-19.47125661 84.84858141 -19.48356346 77.19783508 -19.50486499 69.54693615 C-19.52249831 62.97097228 -19.52847957 56.39506687 -19.52522725 49.81908023 C-19.52341678 45.89474858 -19.52602678 41.97054813 -19.53994179 38.04623795 C-19.55254352 34.35420342 -19.55055408 30.66245493 -19.5375309 26.97042465 C-19.53404848 24.97628784 -19.54532621 22.98214221 -19.55709839 20.98803711 C-19.51987351 14.63447486 -19.38091505 9.71750845 -16.16162109 4.16113281 C-11.48914357 -0.36061963 -6.18821548 0.00897212 0 0 Z M5.83837891 25.16113281 C5.83837891 62.45113281 5.83837891 99.74113281 5.83837891 138.16113281 C24.31837891 138.16113281 42.79837891 138.16113281 61.83837891 138.16113281 C61.83837891 100.87113281 61.83837891 63.58113281 61.83837891 25.16113281 C43.35837891 25.16113281 24.87837891 25.16113281 5.83837891 25.16113281 Z " fill="#000000" transform="translate(23.16162109375,343.8388671875)"/>
</svg>
