<?xml version="1.0" encoding="UTF-8"?>
<svg version="1.1" xmlns="http://www.w3.org/2000/svg" width="512" height="512">
<path d="M0 0 C5.55349158 4.68773814 8.55634755 9.8475095 9.1835289 17.13146782 C9.25630628 19.55252895 9.2671146 21.96629666 9.25537109 24.38842773 C9.25899155 25.30318878 9.262612 26.21794983 9.26634216 27.16043091 C9.27320855 29.13667749 9.2757468 31.11294292 9.27439499 33.08920097 C9.27342576 36.22154838 9.28641861 39.3535564 9.30337524 42.4858551 C9.34953066 51.38808595 9.37425335 60.29028047 9.38085938 69.19262695 C9.38588204 74.64733085 9.41016696 80.10167809 9.44618607 85.55626106 C9.45596298 87.6289868 9.45832757 89.70176172 9.45301437 91.77450371 C9.4459206 94.67744812 9.46327276 97.57933333 9.48583984 100.48217773 C9.47766739 101.33073837 9.46949493 102.17929901 9.46107483 103.05357361 C9.55697791 110.01607623 11.38738599 115.4543761 16.4375 120.375 C20.77356663 123.12470079 24.29892728 124.2495349 29.43427753 124.25726891 C30.51915181 124.2637178 31.60402609 124.27016669 32.72177535 124.276811 C33.90794816 124.2737138 35.09412097 124.2706166 36.3162384 124.26742554 C38.21303165 124.27422221 38.21303165 124.27422221 40.14814395 124.28115618 C43.65591644 124.29339002 47.16359359 124.29312528 50.67138255 124.29076743 C54.45541073 124.29035936 58.23940831 124.30139749 62.02342224 124.31088257 C69.43630608 124.3274957 76.84915811 124.33299226 84.26205901 124.33410732 C90.28781066 124.33505766 96.31355182 124.33916725 102.33930016 124.34550858 C119.42387324 124.36312194 136.5084212 124.37234731 153.59300343 124.37084763 C154.51404325 124.37076772 155.43508308 124.3706878 156.3840332 124.37060547 C157.30619779 124.37052371 158.22836238 124.37044195 159.17847135 124.37035771 C174.12340143 124.36954481 189.06823073 124.38868317 204.01313166 124.4168822 C219.35890417 124.44560911 234.70462753 124.4594226 250.05042762 124.45769465 C258.66574496 124.45703067 267.28095665 124.46252623 275.89624977 124.48405075 C283.23161017 124.50226003 290.56681703 124.50661202 297.90219025 124.4930319 C301.64399094 124.48650088 305.38549705 124.48638958 309.12726974 124.5037384 C313.18600643 124.5223631 317.24406078 124.50991824 321.30281067 124.49447632 C323.07203163 124.50990701 323.07203163 124.50990701 324.87699443 124.52564943 C331.72290774 124.46802514 336.17788167 123.68160135 342 120 C347.70165163 114.1483049 348.29448461 108.65016082 348.27124023 100.85449219 C348.27646698 99.94162949 348.28169373 99.02876678 348.28707886 98.08824158 C348.29730399 96.10978663 348.30309667 94.13130489 348.30496025 92.1528244 C348.30862968 89.01616428 348.32537357 85.87981869 348.34571838 82.7432251 C348.40106682 73.82643497 348.43176765 64.90959827 348.45629883 55.99267578 C348.47222021 50.53383555 348.5024896 45.07521784 348.54106331 39.61649323 C348.55267532 37.54180523 348.55864333 35.46707736 348.55874443 33.39235687 C348.55893762 30.48236532 348.57728786 27.5729824 348.59936523 24.66308594 C348.59478806 23.81497849 348.59021088 22.96687103 348.585495 22.09306335 C348.66474549 15.48470544 349.68707236 9.01183404 353.796875 3.66015625 C359.7614971 -1.21890463 364.9727798 -3.52940945 372.89453125 -3.23828125 C380.29412221 -2.40085073 384.73971636 0.03059208 389.58984375 5.671875 C393.16859487 11.58028404 393.29424248 17.65818299 393.2746582 24.36914062 C393.2823246 25.73904648 393.2823246 25.73904648 393.29014587 27.1366272 C393.3039954 30.14323567 393.3030875 33.14961348 393.30078125 36.15625 C393.30467287 38.26265547 393.3090085 40.36906017 393.31376648 42.47546387 C393.32122035 46.89024395 393.32094501 51.30494407 393.31567383 55.71972656 C393.30990352 61.3400058 393.3267552 66.95995287 393.3500185 72.58017731 C393.36485576 76.93345003 393.36561364 81.28664481 393.36250877 85.63993835 C393.36301775 87.70969801 393.36817461 89.77946253 393.37832069 91.84919739 C393.44078719 106.38319735 393.44568721 121.16325409 386.375 134.3125 C386.03090088 134.97491699 385.68680176 135.63733398 385.33227539 136.31982422 C382.06253711 142.35366357 377.95898894 147.25978998 373 152 C372.2265625 152.81984375 372.2265625 152.81984375 371.4375 153.65625 C367.66868445 157.34654856 363.13112695 159.74901326 358.5 162.1875 C357.89019287 162.52088379 357.28038574 162.85426758 356.65209961 163.19775391 C341.36802617 170.86777636 323.69667292 169.43663708 307.10148859 169.39217401 C303.31409277 169.38532599 299.52673697 169.39589294 295.73934937 169.40411377 C288.33883133 169.41739254 280.93840502 169.41459965 273.53788352 169.40587585 C267.51862576 169.39907651 261.49939356 169.39819226 255.48013306 169.4014473 C254.19080878 169.40213684 254.19080878 169.40213684 252.87543756 169.40284032 C251.12880253 169.40379958 249.38216751 169.40477223 247.6355325 169.4057581 C231.29091504 169.41429483 214.94634821 169.40450488 198.60173905 169.388357 C184.60393351 169.37495538 170.60620263 169.37728396 156.60839844 169.39111328 C140.31877128 169.40719951 124.0291884 169.41347102 107.73955441 169.40427649 C105.99965859 169.40332093 104.25976277 169.40237782 102.51986694 169.4014473 C101.23606658 169.40075306 101.23606658 169.40075306 99.92633086 169.40004479 C93.92040964 169.39746402 87.9145167 169.40180613 81.90859985 169.40888596 C74.58064678 169.41733506 67.25279001 169.4149496 59.92484784 169.39904372 C56.19229034 169.39120659 52.45989288 169.38799063 48.72733688 169.39799118 C12.91160338 169.48593999 12.91160338 169.48593999 -0.3125 162.375 C-0.97491699 162.03090088 -1.63733398 161.68680176 -2.31982422 161.33227539 C-8.35366357 158.06253711 -13.25978998 153.95898894 -18 149 C-18.5465625 148.484375 -19.093125 147.96875 -19.65625 147.4375 C-23.34654856 143.66868445 -25.74901326 139.13112695 -28.1875 134.5 C-28.68757568 133.58528931 -28.68757568 133.58528931 -29.19775391 132.65209961 C-36.01811263 119.06115327 -35.44896157 103.64238619 -35.3984375 88.8515625 C-35.40046341 86.742217 -35.40337913 84.63287218 -35.40713501 82.52352905 C-35.4115282 78.13133997 -35.40522109 73.73933541 -35.39111328 69.34716797 C-35.37395964 63.7354763 -35.38392081 58.12421326 -35.40183067 52.512537 C-35.41269599 48.16808874 -35.40921063 43.82374139 -35.4014473 39.47929001 C-35.39945618 37.41015954 -35.401866 35.3410197 -35.40888596 33.27190018 C-35.41655299 30.37975148 -35.40482573 27.48828929 -35.38818359 24.59619141 C-35.39425629 23.75444366 -35.40032898 22.91269592 -35.40658569 22.04544067 C-35.33675117 15.45405897 -34.30101623 8.99632331 -30.203125 3.66015625 C-21.29380701 -3.62766587 -10.419648 -5.60196129 0 0 Z " fill="#000000" transform="translate(77,301)"/>
<path d="M0 0 C1.0828125 -0.01675781 2.165625 -0.03351562 3.28125 -0.05078125 C11.34740223 0.85959758 16.03956982 6.41827937 21.48706055 11.89550781 C22.37069275 12.77227676 23.25432495 13.64904572 24.16473389 14.55238342 C26.57731627 16.94983473 28.98295891 19.35383711 31.38511634 21.76170826 C33.39520168 23.77489162 35.40987133 25.78345586 37.42451888 27.79207206 C42.17893778 32.53246175 46.92553106 37.28058706 51.66723633 42.03369141 C56.55092243 46.92885853 61.44725136 51.81110856 66.35005921 56.68711782 C70.56724082 60.88211352 74.77658752 65.08485822 78.97975761 69.29389262 C81.48660562 71.80410432 83.99623264 74.31136122 86.51337242 76.81125641 C89.32069349 79.60018006 92.11157548 82.40520767 94.90112305 85.21191406 C96.14718071 86.44346977 96.14718071 86.44346977 97.41841125 87.6999054 C103.07899741 93.43362777 106.92501123 98.34506046 106.9375 106.75 C106.73172084 113.00911617 105.15846345 117.48394529 100.8515625 122.06640625 C96.08716826 126.38348837 91.72339133 128.59291402 85.1875 128.6875 C84.30449219 128.71585938 83.42148437 128.74421875 82.51171875 128.7734375 C72.69809929 127.27148277 66.60687216 119.94507941 60 113.203125 C58.91372223 112.10937472 57.82654889 111.01651323 56.73852539 109.92449951 C53.89542117 107.06621851 51.06454284 104.19612771 48.23614502 101.32330322 C45.34057824 98.38661115 42.43346802 95.46139444 39.52734375 92.53515625 C33.84028071 86.80536297 28.16609759 81.0630262 22.5 75.3125 C22.49641747 76.89255908 22.49641747 76.89255908 22.49276257 78.50453854 C22.43394859 104.14421964 22.35805394 129.78380692 22.26428509 155.42338467 C22.21933381 167.822531 22.17991753 180.22164865 22.15356445 192.62084961 C22.13057905 203.42892561 22.09717481 214.23691081 22.05129844 225.04491478 C22.0273737 230.76681333 22.00863995 236.48862197 22.00238609 242.21056938 C21.99633195 247.59909582 21.97631981 252.98739226 21.94572449 258.37583351 C21.93694962 260.35064471 21.93322054 262.32548596 21.93499184 264.30031586 C21.93665063 267.00369211 21.91989387 269.70637222 21.89872742 272.40965271 C21.90599878 273.57263237 21.90599878 273.57263237 21.91341704 274.75910658 C21.83120345 281.15341204 20.66643142 287.49142952 16.703125 292.65234375 C10.7385029 297.53140463 5.5272202 299.84190945 -2.39453125 299.55078125 C-9.79412221 298.71335073 -14.23971636 296.28190792 -19.08984375 290.640625 C-22.53474317 284.95320102 -22.79448584 279.11535663 -22.7784729 272.65016174 C-22.7842653 271.80296898 -22.7900577 270.95577622 -22.79602563 270.08291095 C-22.81296566 267.25779019 -22.81589696 264.43283338 -22.81884766 261.60766602 C-22.82814997 259.57709862 -22.83831909 257.54653503 -22.84928894 255.51597595 C-22.87656877 250.01244184 -22.89173243 244.50893331 -22.90471697 239.0053494 C-22.92035628 233.25043893 -22.94714398 227.49558061 -22.9727478 221.7407074 C-23.01952136 210.8470086 -23.0562724 199.95329998 -23.08942068 189.05955213 C-23.12765208 176.65572413 -23.1770596 164.25194851 -23.22740483 151.84816468 C-23.33070355 126.33631529 -23.41997069 100.82443224 -23.5 75.3125 C-24.11085953 75.93224197 -24.72171906 76.55198395 -25.35108948 77.19050598 C-31.12224193 83.0419553 -36.90308191 88.88362332 -42.69488621 94.7146349 C-45.67185839 97.71244187 -48.64501149 100.71383784 -51.60961914 103.72387695 C-54.47316714 106.63102875 -57.34650351 109.52817149 -60.22675896 112.41876793 C-61.32144069 113.52081493 -62.41260808 114.62636481 -63.50009346 115.73551369 C-65.02926927 117.29391626 -66.57070762 118.83915553 -68.11547852 120.38208008 C-68.98817886 121.26366287 -69.86087921 122.14524567 -70.76002502 123.05354309 C-76.26455916 127.5917252 -81.72406955 128.88852374 -88.7890625 128.65625 C-95.65726263 127.78535431 -99.94257566 124.40537679 -104.2734375 119.19140625 C-106.84593853 115.25072793 -107.80722521 111.68323831 -107.875 107 C-107.90335938 106.11699219 -107.93171875 105.23398438 -107.9609375 104.32421875 C-106.62065199 95.56692952 -100.81893661 90.05481519 -94.78759766 84.08251953 C-93.46981575 82.75422371 -93.46981575 82.75422371 -92.12541199 81.39909363 C-89.72982125 78.98898107 -87.32566293 76.58813091 -84.91646624 74.19166422 C-82.38949502 71.6748722 -79.87235644 69.14827573 -77.35360718 66.6232605 C-73.12571384 62.3881077 -68.88949641 58.16141905 -64.6484375 53.93945312 C-59.7511819 49.06399114 -54.86854045 44.17424852 -49.99318469 39.27689469 C-45.79743509 35.06297612 -41.59391954 30.8569237 -37.38384855 26.65731323 C-34.87338479 24.15307253 -32.3656711 21.64623845 -29.86494827 19.132267 C-27.07843004 16.33201698 -24.27570796 13.54834293 -21.47119141 10.76611328 C-20.64813004 9.93495499 -19.82506866 9.10379669 -18.97706604 8.24745178 C-12.95211031 2.31096417 -8.59701472 0.03070362 0 0 Z " fill="#000000" transform="translate(256.5,42.6875)"/>
</svg>
