<?xml version="1.0" encoding="UTF-8"?>
<svg version="1.1" xmlns="http://www.w3.org/2000/svg" width="512" height="512">
<path d="M0 0 C4.4475956 3.10485166 8.15665789 7.03740426 11.97367382 10.86597824 C13.26450759 12.14895699 13.26450759 12.14895699 14.58141881 13.45785451 C16.96004855 15.82410299 19.33414494 18.19473641 21.70636642 20.56739902 C24.2692721 23.12865225 26.8378753 25.68418123 29.40568066 28.24052048 C35.01408883 33.82611623 40.61505809 39.41913191 46.21460032 45.0136137 C49.71206198 48.50781511 53.21115292 52.00038174 56.71059132 55.4926033 C66.40338416 65.16583808 76.09460034 74.84064442 85.77907372 84.52220917 C86.70792314 85.45077724 86.70792314 85.45077724 87.65553721 86.39810427 C88.91079159 87.65299241 90.16604471 88.90788183 91.42129656 90.16277251 C92.04438504 90.78567818 92.66747352 91.40858385 93.30944347 92.05036545 C93.93329264 92.67403406 94.5571418 93.29770267 95.19989548 93.94027033 C105.31453831 104.05136956 115.44087501 114.15066858 125.57241233 124.24483642 C135.97927804 134.61362411 146.37676235 144.99174038 156.76475793 155.37943387 C162.59548443 161.20957582 168.43010061 167.0357011 174.27497959 172.85165787 C179.25019056 177.80236224 184.2167089 182.76158589 189.1721532 187.732079 C191.69991796 190.26701453 194.23153041 192.79775997 196.77421856 195.31773376 C199.53216537 198.0512783 202.27044512 200.80400108 205.00712109 203.55884933 C205.81138899 204.34991727 206.61565688 205.1409852 207.44429654 205.95602489 C212.24390846 210.82882045 216.07932399 215.34986693 216.38837785 222.51801181 C216.029357 227.44914078 214.44214994 230.72967756 211.29992199 234.46638107 C207.01532084 238.06934113 202.91100148 239.71292439 197.29992199 239.46638107 C190.05828301 237.51318271 186.04428469 233.9136284 180.85900402 228.62673569 C179.6420612 227.41620105 179.6420612 227.41620105 178.40053368 226.18121117 C175.6909162 223.47981524 172.99953236 220.76096441 170.30773449 218.04182053 C168.36815729 216.0980462 166.42480963 214.15805742 164.48160839 212.21790695 C160.30301945 208.04193539 156.13365787 203.85693223 151.97048473 199.6655941 C145.95129387 193.60570846 139.91828707 187.55973309 133.88185656 181.51702597 C124.08773425 171.71196987 114.30482188 161.89580809 104.5289259 152.07258224 C95.0344728 142.5322099 85.53476443 132.99712119 76.02794933 123.46906662 C75.44161299 122.88141666 74.85527665 122.2937667 74.25117254 121.68830917 C71.30956176 118.74017304 68.36784745 115.79214023 65.42608166 112.84415877 C41.03462352 88.4008961 16.6613452 63.9395774 -7.70007801 39.46638107 C-10.76055692 40.83258419 -12.85577893 42.37661056 -15.21251678 44.74948406 C-16.23503085 45.77157527 -16.23503085 45.77157527 -17.27820176 46.81431478 C-18.01914623 47.56517766 -18.76009071 48.31604053 -19.52348804 49.08965683 C-20.31684836 49.88554169 -21.11020868 50.68142655 -21.92761022 51.50142914 C-24.59374029 54.17834283 -27.25265584 56.86231149 -29.91174793 59.54621506 C-31.81784445 61.46384464 -33.72550904 63.37991121 -35.63318348 65.29597092 C-39.74536959 69.42758039 -43.85420383 73.56249868 -47.96111584 77.69935036 C-54.45477564 84.23976113 -60.95881312 90.76979736 -67.4645586 97.29818344 C-69.69074463 99.53237243 -71.91686332 101.76662852 -74.1429615 104.00090504 C-74.69929496 104.55927695 -75.25562842 105.11764887 -75.82882046 105.69294114 C-82.16110388 112.04870928 -88.49124607 118.40660806 -94.82043934 124.76545334 C-95.39898642 125.34670528 -95.9775335 125.92795723 -96.57361231 126.52682287 C-105.946311 135.94387123 -115.31127938 145.36857821 -124.67429944 154.79524826 C-134.29005633 164.47581145 -143.91733858 174.14481179 -153.55453664 183.80403 C-159.496771 189.76070316 -165.42936039 195.72666664 -171.34985474 201.70494962 C-175.40966967 205.80279778 -179.48036239 209.88962695 -183.55972769 213.96801262 C-185.91193856 216.32034938 -188.2571202 218.67871468 -190.59285641 221.04747581 C-193.12880957 223.61777835 -195.68265212 226.16889196 -198.24174976 228.71612167 C-199.33643606 229.8390699 -199.33643606 229.8390699 -200.45323724 230.98470396 C-205.01010828 235.47130548 -209.27128555 238.45502201 -215.70007801 239.46638107 C-221.9800197 239.09089773 -226.42634719 237.24888937 -230.70007801 232.46638107 C-233.12087414 228.04542361 -234.10325329 223.91014202 -233.32507801 218.90388107 C-230.73215075 210.32667506 -222.25968735 203.87604833 -216.09157276 197.70397568 C-215.25002453 196.85804519 -214.40847629 196.0121147 -213.5414266 195.14054996 C-211.22575312 192.81389909 -208.90790408 190.4894427 -206.58903515 188.16597736 C-204.08078868 185.65172849 -201.57534544 183.13468843 -199.06944752 180.61809921 C-193.0320513 174.55630084 -186.98981325 168.49934036 -180.94667521 162.44326684 C-179.2388819 160.7317554 -177.53121603 159.02011691 -175.82359481 157.30843377 C-165.20587503 146.66549273 -154.58656396 136.02414225 -143.96246147 125.38757229 C-141.50787461 122.93005611 -139.05330397 120.47252373 -136.59875965 118.01496506 C-135.98875 117.40420936 -135.37874035 116.79345366 -134.75024556 116.16419021 C-124.85403363 106.25530618 -114.96815913 96.3361741 -105.08643777 86.41284134 C-94.92992499 76.21391217 -84.76401205 66.02442901 -74.58888239 55.84407264 C-68.88035387 50.13213186 -63.17605713 44.41609958 -57.48232174 38.68940926 C-52.63772969 33.81682109 -47.78472666 28.95281305 -42.92051966 24.09980264 C-40.44022465 21.62469336 -37.96414033 19.14572772 -35.49884892 16.65566635 C-32.82249228 13.95669944 -30.13118812 11.27357459 -27.4355669 8.59386826 C-26.66210912 7.80652839 -25.88865134 7.01918852 -25.09175545 6.20798987 C-17.90907894 -0.87055091 -9.74778582 -5.53665071 0 0 Z " fill="#000000" transform="translate(264.7000780105591,33.53361892700195)"/>
<path d="M0 0 C4.96501968 2.30518771 7.4292632 5.21555864 10 10 C10.56737296 13.40554541 10.53366594 16.75920171 10.49829102 20.20532227 C10.50380981 21.2191951 10.50932861 22.23306793 10.51501465 23.27766418 C10.52432302 25.47435637 10.52444947 27.67110252 10.51642036 29.86779976 C10.50376825 33.35443541 10.51510397 36.84028181 10.53245544 40.32688904 C10.55916667 46.48190966 10.56475135 52.63673677 10.56335449 58.79180908 C10.56112782 68.617629 10.5754783 78.44320756 10.61894035 88.26893425 C10.62871199 91.68597683 10.62009254 95.1026344 10.61024475 98.51966858 C10.62625373 115.86226506 11.79191061 131.9180709 24.1875 145.37890625 C35.38477514 155.39371052 48.51308161 159.15770364 63.26441956 159.14044189 C64.47138919 159.14489858 64.47138919 159.14489858 65.70274204 159.1494453 C68.38460241 159.15807968 71.06641787 159.15963608 73.74829102 159.16113281 C75.67732335 159.16576478 77.60635477 159.17078995 79.53538513 159.17617798 C84.7671484 159.18926907 89.99889885 159.19574072 95.23067594 159.20018864 C98.50413194 159.2031252 101.77758449 159.20723115 105.05103874 159.21169281 C115.30688573 159.22536023 125.56272475 159.2350301 135.81858021 159.2388947 C147.63111631 159.24337112 159.44353644 159.26090293 171.25603729 159.2898953 C180.40367001 159.31156245 189.55127021 159.3216017 198.6989283 159.32293582 C204.15431206 159.32398041 209.60958671 159.32981414 215.06494331 159.34775543 C220.20237325 159.36432292 225.33961306 159.36634976 230.47706032 159.35761642 C232.35304527 159.35685063 234.22904081 159.36112775 236.10499954 159.37107468 C253.14089482 159.45604022 266.86479175 157.70899033 281.25 147.75 C292.28383697 136.71616303 297.17532672 123.51627636 297.26786804 108.09555054 C297.26168205 106.67685165 297.26168205 106.67685165 297.25537109 105.22949219 C297.25899155 104.2037912 297.262612 103.17809021 297.26634216 102.12130737 C297.27319248 99.91265497 297.27574987 97.70398579 297.27439499 95.49532318 C297.27342389 91.99784514 297.28643856 88.50066945 297.30337524 85.00323486 C297.34948885 75.06598172 297.37427239 65.12876288 297.38085938 55.19140625 C297.38587094 49.09785126 297.41009294 43.00461726 297.44618607 36.91117096 C297.45598234 34.59396541 297.45831698 32.27671573 297.45301437 29.95949554 C297.44595151 26.72362303 297.46320764 23.48871136 297.48583984 20.25292969 C297.47358116 18.82208542 297.47358116 18.82208542 297.46107483 17.36233521 C297.53118467 11.72875767 298.22206959 8.46004543 302 4 C305.81930172 0.37166337 308.88279006 -0.31000458 314 -0.5 C319.11720994 -0.31000458 322.18069828 0.37166337 326 4 C330.65458652 9.39541724 330.57228603 14.03383926 330.51757812 20.98388672 C330.52809204 22.62914085 330.52809204 22.62914085 330.53881836 24.30763245 C330.55641217 27.93190903 330.54476173 31.55540298 330.53125 35.1796875 C330.53394643 37.71111195 330.5378301 40.24253539 330.54284668 42.7739563 C330.54874528 48.08509107 330.5405585 53.39594788 330.52148438 58.70703125 C330.49982831 64.8066055 330.50668568 70.90564245 330.52879 77.00520313 C330.5493108 82.90841795 330.54690396 88.81143263 330.53526306 94.71466446 C330.53261443 97.20783694 330.53579907 99.7010233 330.54518127 102.19417953 C330.61421908 125.71751942 327.93522745 145.51081962 312 164 C311.48050781 164.66257812 310.96101563 165.32515625 310.42578125 166.0078125 C298.28553594 180.99939871 279.43025205 190.19628169 260.40758228 192.28459644 C250.58783199 193.11258668 240.81547416 193.14841071 230.96948242 193.14526367 C229.08221877 193.14826182 227.19495573 193.15166584 225.30769348 193.15544128 C220.21663896 193.16421767 215.12560129 193.16661667 210.03453994 193.16725707 C206.84512583 193.16797107 203.65571593 193.17011194 200.46630287 193.17275429 C189.31501624 193.18198586 178.1637415 193.18609182 167.01245117 193.18530273 C156.65658973 193.18470217 146.30078042 193.1952555 135.94493216 193.2110464 C127.0196506 193.22416567 118.09438598 193.22948481 109.16909486 193.22884732 C103.85349171 193.22859368 98.53793498 193.23137097 93.22234154 193.24202538 C88.21946178 193.25178086 83.21667212 193.25173503 78.21378899 193.24450874 C76.39024472 193.24347218 74.56669461 193.24576975 72.74316025 193.2518692 C45.32676789 193.33754859 20.85528053 188.80804472 0.38671875 169.38037109 C-3.14344975 165.86636182 -6.16044063 162.08349478 -9 158 C-9.54140625 157.22269531 -10.0828125 156.44539062 -10.640625 155.64453125 C-18.66471432 143.22340309 -22.30319374 129.16319178 -22.29052734 114.53857422 C-22.30060318 112.85415726 -22.30060318 112.85415726 -22.31088257 111.13571167 C-22.32980532 107.44199138 -22.3337832 103.74845317 -22.3359375 100.0546875 C-22.34236687 97.47974575 -22.34909533 94.90480473 -22.35610962 92.3298645 C-22.36806623 86.94173169 -22.37187776 81.55367077 -22.37060547 76.16552734 C-22.36940202 69.9464637 -22.39055551 63.72774594 -22.4220928 57.50876987 C-22.45142601 51.50943382 -22.45858099 45.51028541 -22.45738602 39.51086807 C-22.45974625 36.96475939 -22.46859338 34.41864815 -22.48405075 31.8725853 C-22.50363262 28.31564207 -22.49790362 24.75959416 -22.48583984 21.20263672 C-22.49707886 20.15209106 -22.50831787 19.10154541 -22.51989746 18.01916504 C-22.46804841 12.00710289 -21.98443817 8.58867303 -18 4 C-12.72867143 -1.00776214 -6.89190982 -0.92775709 0 0 Z " fill="#000000" transform="translate(102,288)"/>
</svg>
