<?xml version="1.0" encoding="UTF-8"?>
<svg version="1.1" xmlns="http://www.w3.org/2000/svg" width="512" height="512">
<path d="M0 0 C5.72336211 5.72336211 7.35295154 11.69432272 7.39344788 19.62417603 C7.39291916 20.47619598 7.39239044 21.32821594 7.3918457 22.20605469 C7.39532013 23.11062408 7.39879456 24.01519348 7.40237427 24.94717407 C7.40972146 26.91038144 7.41507237 28.87359705 7.41866493 30.83681488 C7.42584118 33.94785768 7.44151695 37.05874375 7.46000671 40.16973877 C7.51241883 49.01482994 7.56043864 57.85983502 7.57592773 66.70507812 C7.58602639 72.11744501 7.6153988 77.52941689 7.65724754 82.9416275 C7.66953529 85.00038918 7.67468288 87.05920671 7.67244911 89.11800385 C7.67008805 92.00455157 7.69232391 94.88997217 7.7199707 97.77636719 C7.71336929 98.62029022 7.70676788 99.46421326 7.69996643 100.33370972 C7.79890272 106.65148729 9.28755506 112.0416961 13.66174793 116.77891159 C18.28588478 120.85853707 22.55434708 122.49802403 28.65304279 122.50726891 C30.26990403 122.51694224 30.26990403 122.51694224 31.91942912 122.526811 C33.09782003 122.5237138 34.27621094 122.5206166 35.49031067 122.51742554 C36.74667239 122.52195665 38.00303412 122.52648776 39.29746741 122.53115618 C42.78243693 122.54338951 46.26731047 122.54312534 49.75229657 122.54076743 C53.51178474 122.54035935 57.27124211 122.55139761 61.03071594 122.56088257 C68.39547288 122.57749543 75.7601978 122.58299225 83.1249719 122.58410732 C89.11163128 122.58505768 95.0982801 122.58916733 101.08493614 122.59550858 C118.05883421 122.61312187 135.03270698 122.62234732 152.00661425 122.62084763 C153.379213 122.62072776 153.379213 122.62072776 154.77954102 122.62060547 C156.15381605 122.62048283 156.15381605 122.62048283 157.55585422 122.62035771 C172.40378669 122.61954481 187.25161771 122.63868311 202.09952084 122.6668822 C217.34585231 122.69560946 232.5921343 122.70942258 247.83849353 122.70769465 C256.3979198 122.70703069 264.95723972 122.71252572 273.51664162 122.73405075 C280.80442518 122.75226049 288.0920542 122.75661164 295.37985066 122.7430319 C299.09734887 122.73650111 302.81455056 122.73638873 306.53202057 122.7537384 C310.56448432 122.7723644 314.59626135 122.75991764 318.6287384 122.74447632 C320.38628652 122.75990701 320.38628652 122.75990701 322.17934066 122.77564943 C329.41225717 122.71437695 335.31271975 121.91539285 340.76661617 116.83811319 C346.0155271 110.94301377 346.54388899 105.70731009 346.52124023 98.18041992 C346.52646698 97.2757045 346.53169373 96.37098907 346.53707886 95.43885803 C346.54730305 93.47840798 346.5530965 91.51793089 346.55496025 89.55745506 C346.55862917 86.45047265 346.57537113 83.34380793 346.59571838 80.2368927 C346.65107538 71.40465207 346.68178551 62.57236461 346.70629883 53.73999023 C346.72220842 48.33302408 346.75246426 42.92628318 346.79106331 37.51943398 C346.80268432 35.46345734 346.8086434 33.40744037 346.80874443 31.35143089 C346.80893733 28.46997054 346.82726651 25.58912769 346.84936523 22.70776367 C346.84478806 21.86541168 346.84021088 21.02305969 346.835495 20.15518188 C346.92781635 12.55057205 348.70673619 5.79326381 354.25 0.25 C360.37403025 -3.98531064 365.82243513 -5.50488863 373.25 -4.75 C378.90231007 -3.33432013 384.00093393 -1.00202797 387.40625 3.921875 C390.08925772 8.40633076 391.36801913 12.1098289 391.39044189 17.28134155 C391.39615204 18.07436676 391.40186218 18.86739197 391.40774536 19.68444824 C391.40886322 20.54574341 391.40998108 21.40703857 391.41113281 22.29443359 C391.41609772 23.20887238 391.42106262 24.12331116 391.42617798 25.06546021 C391.44078862 28.09312699 391.44760263 31.12074124 391.453125 34.1484375 C391.45888087 36.26152548 391.46463855 38.37461345 391.47039795 40.48770142 C391.48090724 44.92458336 391.48674922 49.36144721 391.49023438 53.79833984 C391.4956946 59.45129059 391.5196698 65.10399748 391.54820633 70.75687218 C391.56694901 75.12725491 391.57204464 79.49758053 391.57357025 83.86800003 C391.57657519 85.94975735 391.58452963 88.03151419 391.59775543 90.11323166 C391.68264357 104.51174868 391.55709605 118.47766724 384.5625 131.5 C384.21219727 132.169104 383.86189453 132.83820801 383.50097656 133.52758789 C375.14375379 149.02810381 361.86260522 159.6786997 345.0625 165 C336.95793842 167.3747608 329.04179985 167.39657741 320.65769958 167.39044189 C319.3875282 167.39341302 318.11735681 167.39638414 316.80869538 167.3994453 C313.2942443 167.40748255 309.77981369 167.40930303 306.26535451 167.41004276 C302.47034943 167.41189906 298.67535482 167.41944932 294.88035583 167.42617798 C286.58670786 167.43973889 278.29306474 167.44578262 269.99940753 167.45018864 C264.81634148 167.45295505 259.63327728 167.45719315 254.45021248 167.46169281 C240.08721121 167.47388293 225.72421143 167.4841825 211.3612051 167.4875679 C209.98326461 167.48789725 209.98326461 167.48789725 208.57748694 167.48823325 C207.19633097 167.48856067 207.19633097 167.48856067 205.78727287 167.4888947 C203.9215771 167.48933816 202.05588132 167.48978472 200.19018555 167.49023438 C198.80202412 167.49056652 198.80202412 167.49056652 197.38581903 167.49090537 C182.39982462 167.49485103 167.4138789 167.51229909 152.42790329 167.5355939 C137.02554312 167.55934178 121.62320735 167.57177133 106.22082859 167.57293582 C97.57965603 167.57385069 88.93854692 167.57955542 80.29739189 167.59775543 C72.93738864 167.61320292 65.57746844 167.6182496 58.21745204 167.61001733 C54.46683788 167.60612711 50.71639073 167.60696004 46.96579742 167.62107468 C42.88747475 167.63628135 38.80952368 167.62789899 34.73118591 167.61749268 C32.97855404 167.62957728 32.97855404 167.62957728 31.19051546 167.64190602 C20.02807485 167.5756594 8.92496359 165.89149878 -1 160.5625 C-2.00256836 160.03922119 -2.00256836 160.03922119 -3.02539062 159.50537109 C-18.77054296 151.03569616 -29.17882317 137.99443766 -34.5625 120.9375 C-36.57693048 113.94193232 -36.90174102 106.99459855 -36.91113281 99.76977539 C-36.91609772 98.84526077 -36.92106262 97.92074615 -36.92617798 96.96821594 C-36.94071214 93.92802166 -36.94758568 90.88787948 -36.953125 87.84765625 C-36.95888206 85.72448222 -36.96463972 83.60130819 -36.97039795 81.47813416 C-36.98088193 77.03400431 -36.98674213 72.58989242 -36.99023438 68.14575195 C-36.99572462 62.46203102 -37.01977511 56.77854895 -37.04820633 51.09490299 C-37.06685983 46.71190197 -37.07203968 42.32895831 -37.07357025 37.94592094 C-37.07658933 35.85083137 -37.08459262 33.75574262 -37.09775543 31.66069221 C-37.11487843 28.72681731 -37.11292076 25.79352423 -37.10644531 22.85961914 C-37.1156601 22.00170776 -37.12487488 21.14379639 -37.1343689 20.2598877 C-37.08163202 12.60250329 -35.33650891 5.83650891 -29.75 0.25 C-19.91568315 -6.55130324 -9.93984913 -6.32535854 0 0 Z " fill="#000000" transform="translate(78.75,302.75)"/>
<path d="M0 0 C6.31578924 6.31578924 7.3975032 12.90303877 7.40821838 21.51361084 C7.41315636 22.35415677 7.41809434 23.19470271 7.42318195 24.06071973 C7.4385577 26.88129814 7.4469178 29.70185378 7.45532227 32.52246094 C7.46490073 34.54273174 7.47491079 36.56300053 7.48532104 38.58326721 C7.51237963 44.07251188 7.53338406 49.56176516 7.55332303 55.0510397 C7.57517667 60.78593455 7.60256841 66.52080284 7.62937927 72.25567627 C7.67931455 83.11760571 7.7242503 93.97954988 7.76740164 104.84150815 C7.81676686 117.20655853 7.87168765 129.57158227 7.92708123 141.93660688 C8.0409141 167.37437973 8.14775032 192.81217814 8.25 218.25 C8.83358276 217.65753479 9.41716553 217.06506958 10.01843262 216.45465088 C15.53905432 210.8536448 21.06942661 205.26248788 26.61077118 199.68198013 C29.45881391 196.81312588 32.30304184 193.94069832 35.13867188 191.05957031 C37.87898977 188.27556467 40.62916598 185.5016486 43.38624573 182.7342453 C44.43266076 181.68047991 45.47556873 180.6232191 46.51475525 179.56232452 C58.62874052 167.20561411 58.62874052 167.20561411 67.375 165.71875 C74.88657079 165.80039751 80.41369129 166.6363342 86 171.8984375 C90.50256278 176.85558594 92.53606176 181.27651196 92.625 188.0625 C92.65335938 189.03832031 92.68171875 190.01414063 92.7109375 191.01953125 C91.46400526 199.75862418 85.85754945 205.22119769 79.84472656 211.17285156 C78.99867859 212.02590881 78.15263062 212.87896606 77.28094482 213.75787354 C74.97410258 216.07923473 72.65857965 218.39145247 70.33811665 220.69918537 C67.90149713 223.12561729 65.47472052 225.56186307 63.04632568 227.996521 C58.96805918 232.08204722 54.88147194 236.15910755 50.79003906 240.23144531 C46.07233483 244.92738405 41.36921294 249.6375585 36.67340493 254.35538507 C32.62795723 258.41903464 28.57470406 262.47477492 24.51492667 266.52410865 C22.09606713 268.93675951 19.67992583 271.35196615 17.27082062 273.77436066 C14.58107341 276.47429494 11.87878465 279.1610272 9.17285156 281.84472656 C8.38503296 282.64064209 7.59721436 283.43655762 6.78552246 284.2565918 C0.67877269 290.27096752 -5.55601467 294.80224264 -14.375 295.5625 C-27.062363 295.33013071 -35.80584412 284.34059736 -44.12207031 276.05493164 C-45.31387405 274.8729847 -45.31387405 274.8729847 -46.52975464 273.66716003 C-49.13209427 271.08437434 -51.73054058 268.49772391 -54.328125 265.91015625 C-55.22046593 265.02189085 -56.11280685 264.13362545 -57.03218842 263.21844292 C-61.26332767 259.00594742 -65.49243559 254.79142952 -69.71844983 250.57379347 C-74.5746101 245.72742484 -79.43896118 240.88947397 -84.31034017 236.05840403 C-88.54989997 231.85271339 -92.77838738 227.63600569 -97.00307465 223.41537285 C-98.79382869 221.62948277 -100.58795375 219.84696611 -102.38553619 218.0679493 C-104.89838842 215.57946409 -107.39829129 213.07862508 -109.89550781 210.57446289 C-111.00522446 209.48396133 -111.00522446 209.48396133 -112.13735962 208.37142944 C-117.16979451 203.28789877 -121.04831845 198.37753851 -122.28125 191.125 C-122.19960249 183.61342921 -121.3636658 178.08630871 -116.1015625 172.5 C-111.14441406 167.99743722 -106.72348804 165.96393824 -99.9375 165.875 C-98.96167969 165.84664062 -97.98585937 165.81828125 -96.98046875 165.7890625 C-87.13041511 167.19451151 -81.08495064 174.38621545 -74.46875 181.140625 C-73.40489272 182.21195516 -72.34013952 183.28239634 -71.27453613 184.35198975 C-68.4906121 187.15108763 -65.71891864 189.96199088 -62.94970703 192.77563477 C-60.11446719 195.65200636 -57.26767736 198.51689758 -54.421875 201.3828125 C-48.85329689 206.99411565 -43.29760309 212.61795938 -37.75 218.25 C-37.74761165 217.20085922 -37.74522329 216.15171844 -37.74276257 215.07078552 C-37.68396151 189.53994247 -37.60807486 164.00919374 -37.51428509 138.47845459 C-37.46932433 126.13196669 -37.42991024 113.78550766 -37.40356445 101.43896484 C-37.38058672 90.6774099 -37.34719107 79.91594628 -37.30129844 69.15446377 C-37.27736334 63.45663028 -37.25863638 57.75888725 -37.25238609 52.06100464 C-37.24633663 46.69628316 -37.22634143 41.33179315 -37.19572449 35.96715736 C-37.18694211 33.99998901 -37.18322209 32.03279042 -37.18499184 30.06560326 C-37.18664789 27.375012 -37.16991702 24.68512358 -37.14872742 21.99462891 C-37.15357499 21.22028724 -37.15842257 20.44594557 -37.16341704 19.648139 C-37.06777554 12.26482243 -35.10356909 5.60356909 -29.75 0.25 C-19.91568315 -6.55130324 -9.93984913 -6.32535854 0 0 Z " fill="#000000" transform="translate(270.75,46.75)"/>
</svg>
