<?xml version="1.0" encoding="UTF-8"?>
<svg version="1.1" xmlns="http://www.w3.org/2000/svg" width="512" height="512">
<path d="M0 0 C5.6554193 5.47042895 7.01312436 9.2106687 7.28979492 17.08935547 C9.04211044 66.666328 29.93190368 110.50493064 65.6875 144.5625 C102.13971817 177.83950035 149.85462831 189.64839594 198 188 C230.96393464 185.85085529 262.97200987 171.84160388 289 152 C289.93199219 151.29359375 290.86398437 150.5871875 291.82421875 149.859375 C297.30668814 145.53742833 302.35388011 140.84131409 307.3125 135.9375 C307.88742187 135.37192383 308.46234375 134.80634766 309.0546875 134.22363281 C313.13741054 130.11012357 316.62980542 125.7112464 320 121 C319.0255896 121.31807617 319.0255896 121.31807617 318.03149414 121.64257812 C315.04602999 122.60862751 312.05449785 123.55438994 309.0625 124.5 C308.04091797 124.83386719 307.01933594 125.16773438 305.96679688 125.51171875 C298.70511497 127.7853444 292.18254231 129.44780311 284.75 126.875 C280.5703011 124.0252053 277.63135676 120.89407029 276 116 C275.22485699 109.44305257 276.12287083 105.34415102 280 100 C283.55412252 96.74050955 286.60326128 95.22178969 291.22387695 93.90942383 C292.45898514 93.55258011 293.69409332 93.19573639 294.96662903 92.82807922 C296.30706094 92.45397054 297.64761482 92.08029865 298.98828125 91.70703125 C300.37469326 91.31244855 301.760854 90.91698199 303.14677429 90.52067566 C306.04723442 89.69397901 308.94979206 88.8752881 311.85424805 88.06274414 C315.55952563 87.02589598 319.26016102 85.97353097 322.9594698 84.91560841 C325.82102197 84.09837342 328.68431019 83.28737125 331.54820824 82.47839928 C332.91242302 82.09268827 334.2762435 81.70557961 335.63964272 81.31699562 C354.66726569 75.9085493 354.66726569 75.9085493 360.1875 78.0625 C361.10595703 78.38927734 361.10595703 78.38927734 362.04296875 78.72265625 C367.11812138 82.03518102 369.60948839 86.68339093 371.35546875 92.32421875 C371.55375778 92.95527023 371.75204681 93.58632172 371.9563446 94.23649597 C372.6552525 96.48595991 373.32840376 98.74223471 374 101 C374.27217346 101.90075256 374.54434692 102.80150513 374.82476807 103.72955322 C376.71187206 109.980103 378.54978355 116.24371802 380.35864258 122.51733398 C380.99763285 124.72476979 381.64255053 126.93049791 382.29321289 129.13452148 C383.24627869 132.36338711 384.18164473 135.59692631 385.11328125 138.83203125 C385.40382889 139.80517776 385.69437653 140.77832428 385.99372864 141.78096008 C388.04115303 149.00363514 389.33963749 156.05551184 386.875 163.3125 C383.99644284 167.43843192 380.86637047 170.37787651 376 172 C370.30737162 172.56384129 365.85055862 172.30719906 361 169 C355.96137866 164.00921367 354.47588033 159.03289529 352.75 152.25 C352.24608093 150.35903096 351.74093367 148.46838865 351.234375 146.578125 C351.02006836 145.74700195 350.80576172 144.91587891 350.58496094 144.05957031 C350.05776183 141.96066716 350.05776183 141.96066716 349 140 C348.00033203 141.19882812 348.00033203 141.19882812 346.98046875 142.421875 C329.09335835 163.77893409 329.09335835 163.77893409 319 172 C317.94650737 172.8891959 316.89313272 173.7785316 315.83984375 174.66796875 C282.075697 202.81558848 237.47161174 221.80535096 193.12890625 222.23828125 C191.88200264 222.25297203 191.88200264 222.25297203 190.60990906 222.26795959 C172.06400216 222.44136045 154.14468245 222.31219257 136 218 C135.09491699 217.78569336 134.18983398 217.57138672 133.25732422 217.35058594 C104.85407304 210.37042727 78.2846459 197.65307195 55 180 C53.99582031 179.26136719 52.99164063 178.52273438 51.95703125 177.76171875 C47.48410435 174.41222466 47.48410435 174.41222466 46 173 C46 172.34 46 171.68 46 171 C45.41677979 170.74057617 44.83355957 170.48115234 44.23266602 170.21386719 C40.17034884 168.00524598 37.17259862 164.5095935 33.9375 161.25 C32.79849243 160.10362061 32.79849243 160.10362061 31.63647461 158.93408203 C25.18186415 152.34589957 19.35433883 145.50453972 14 138 C13.58202148 137.41573242 13.16404297 136.83146484 12.73339844 136.22949219 C-11.24227761 102.31761885 -25.94224667 62.05239205 -26.3125 20.3125 C-26.34150391 19.21099609 -26.37050781 18.10949219 -26.40039062 16.97460938 C-26.4500443 10.64567526 -26.30108596 6.78073174 -22 2 C-15.46508879 -4.04479287 -7.6734113 -5.06118617 0 0 Z " fill="#000000" transform="translate(74,242)"/>
<path d="M0 0 C0.93328125 0.72832031 1.8665625 1.45664063 2.828125 2.20703125 C13.85204188 10.94742249 23.4185917 20.85896474 32 32 C32.62358398 32.79301514 32.62358398 32.79301514 33.25976562 33.60205078 C60.42708049 68.28565609 75.72718811 111.61675861 76.375 155.625 C76.40110352 156.65713623 76.42720703 157.68927246 76.45410156 158.75268555 C76.46811475 164.84892358 76.06864975 168.36605339 72 173 C67.56464639 177.00263619 64.24216389 178.37763255 58.19140625 178.27734375 C52.746344 177.58821822 48.97977302 175.20587449 45.5625 171 C43.26406135 166.58699778 42.90499712 163.08606789 42.76098633 158.11352539 C41.93952084 131.69290273 35.57244798 106.6973495 24 83 C23.44570313 81.86175781 22.89140625 80.72351563 22.3203125 79.55078125 C5.64323524 47.11426495 -20.81894397 22.61220674 -53 6 C-53.92329102 5.52288574 -53.92329102 5.52288574 -54.86523438 5.03613281 C-96.36594611 -16.06704526 -143.3780198 -17.66061446 -187.41748047 -4.26464844 C-219.01970266 6.06343227 -248.90377024 26.47085014 -269 53 C-264.31160862 52.14346696 -259.67475255 51.21526985 -255.08984375 49.90625 C-240.70088041 45.85014047 -240.70088041 45.85014047 -234 49 C-229.73004184 51.59910497 -227.68492548 54.29994472 -226 59 C-225.13799675 64.66609455 -226.03474849 69.07083346 -228.5390625 74.17578125 C-232.07868083 78.59557205 -237.00460862 80.57440287 -242.30566406 82.10644531 C-243.53424133 82.46651672 -244.7628186 82.82658813 -246.02862549 83.1975708 C-247.35745024 83.57503913 -248.68645482 83.95187484 -250.015625 84.328125 C-251.39572363 84.72543522 -252.77566495 85.12329225 -254.15545654 85.52166748 C-257.04161919 86.35221553 -259.92988912 87.17486665 -262.81982422 87.9921875 C-266.50039423 89.03397889 -270.17440189 90.09708191 -273.8470192 91.16652298 C-276.69445232 91.99270262 -279.54535923 92.80633558 -282.39739227 93.61647797 C-283.7523502 94.00314401 -285.10617533 94.39380513 -286.45874786 94.78873444 C-303.79103031 99.83278563 -303.79103031 99.83278563 -312.375 96.8125 C-318.12051264 92.84536032 -319.94764086 88.04959259 -321.8203125 81.625 C-322.07080353 80.79846924 -322.32129456 79.97193848 -322.57937622 79.12036133 C-323.11694163 77.34071456 -323.64927826 75.55948155 -324.17687988 73.77685547 C-325.0047435 70.98399747 -325.84950523 68.19673561 -326.69824219 65.41015625 C-328.15996771 60.59574036 -329.59058704 55.77279898 -331.00683594 50.94482422 C-331.59035853 48.9655077 -332.17997885 46.98797962 -332.77539062 45.01220703 C-333.65369839 42.09551724 -334.51234561 39.17364149 -335.3671875 36.25 C-335.6327243 35.38205811 -335.89826111 34.51411621 -336.17184448 33.61987305 C-338.25678519 26.3605385 -339.74040204 18.54526341 -336.3125 11.5625 C-329.717133 4.25412035 -329.717133 4.25412035 -324.828125 3.796875 C-319.44885579 3.69907011 -315.55851926 3.81963773 -311 7 C-305.99611467 11.9800573 -304.44524383 16.93943334 -302.6875 23.6875 C-302.42388672 24.63689453 -302.16027344 25.58628906 -301.88867188 26.56445312 C-300 33.49612419 -300 33.49612419 -300 37 C-299.34 37 -298.68 37 -298 37 C-297.81050781 36.3296875 -297.62101562 35.659375 -297.42578125 34.96875 C-295.40756053 30.7664274 -292.40447675 27.83245797 -289.1875 24.5 C-288.57068359 23.84902344 -287.95386719 23.19804688 -287.31835938 22.52734375 C-283.9314686 18.96408991 -280.47912419 15.47326708 -277 12 C-276.30261719 11.25621094 -275.60523438 10.51242188 -274.88671875 9.74609375 C-241.05252988 -25.77079012 -188.8301342 -44.50965159 -140.6953125 -46.921875 C-89.19390958 -48.01069959 -40.25415198 -32.38060671 0 0 Z " fill="#000000" transform="translate(388,94)"/>
<path d="M0 0 C4.90624714 2.27790046 7.5167579 5.21745967 10 10 C9.979375 11.299375 9.95875 12.59875 9.9375 13.9375 C9.97405032 16.05150345 9.97405032 16.05150345 11 18 C14.06596631 20.04094043 17.25996533 21.56406955 20.5703125 23.17578125 C30.23259266 28.31505783 35.84291121 37.09924118 40 47 C41.61182418 52.42536697 41.33728629 57.00327346 39.09375 62.20703125 C36.90296687 65.79835074 33.75082729 68.12458636 30 70 C22.89144099 70.71910796 17.67134654 70.51392888 12 66 C10.39199657 63.78631527 9.20832467 61.44844736 8 59 C5.48109268 54.77473611 3.65890787 51.8230509 -1 50 C-6.04325384 49.31573943 -9.83076884 49.4260138 -14.4375 51.6875 C-17.79656012 54.71884694 -19.69355631 56.74139648 -20.31640625 61.33203125 C-20.58213652 67.04951809 -19.96847152 70.60250453 -16 75 C-11.55976673 78.36787504 -7.17803314 78.76877366 -1.8125 79.4375 C13.215668 81.59536159 23.23341356 86.93852343 33.2109375 98.60546875 C42.11649486 110.52491561 43.15502612 123.63454724 42 138 C40.45225643 146.59136699 36.47426194 153.30015703 31 160 C30.48824219 160.63679687 29.97648437 161.27359375 29.44921875 161.9296875 C25.8253483 165.97619297 22.09402422 167.99148194 17.1875 170.3125 C12.62194646 172.47157798 12.62194646 172.47157798 9.89453125 176.453125 C9.46924622 179.04807991 9.46924622 179.04807991 9.3046875 181.62890625 C8.79503536 185.5950453 6.84861043 187.28703768 4 190 C-0.88801697 193.08157591 -6.43115492 192.59719518 -12 192 C-16.90624714 189.72209954 -19.5167579 186.78254033 -22 182 C-21.979375 180.700625 -21.95875 179.40125 -21.9375 178.0625 C-21.97405032 175.94849655 -21.97405032 175.94849655 -23 174 C-26.06596631 171.95905957 -29.25996533 170.43593045 -32.5703125 168.82421875 C-42.20338349 163.70047826 -47.91394345 154.90778314 -52 145 C-53.49714841 139.76366812 -53.61763164 135.63631268 -51.375 130.625 C-49.0531957 126.63439885 -46.13441653 124.06720827 -42 122 C-34.89144099 121.28089204 -29.67134654 121.48607112 -24 126 C-22.39199657 128.21368473 -21.20832467 130.55155264 -20 133 C-17.48109268 137.22526389 -15.65890787 140.1769491 -11 142 C-5.95674616 142.68426057 -2.16923116 142.5739862 2.4375 140.3125 C5.79656012 137.28115306 7.69355631 135.25860352 8.31640625 130.66796875 C8.58213652 124.95048191 7.96847152 121.39749547 4 117 C-0.43510959 113.63399404 -4.76674318 113.27026265 -10.125 112.625 C-24.7804078 110.56959195 -35.5201886 104.69770721 -45.17578125 93.4296875 C-54.11955856 81.51741879 -55.15600292 68.37760152 -54 54 C-52.45225643 45.40863301 -48.47426194 38.69984297 -43 32 C-42.48824219 31.36320312 -41.97648438 30.72640625 -41.44921875 30.0703125 C-37.8253483 26.02380703 -34.09402422 24.00851806 -29.1875 21.6875 C-24.62194646 19.52842202 -24.62194646 19.52842202 -21.89453125 15.546875 C-21.46924622 12.95192009 -21.46924622 12.95192009 -21.3046875 10.37109375 C-20.79503536 6.4049547 -18.84861043 4.71296232 -16 2 C-11.11198303 -1.08157591 -5.56884508 -0.59719518 0 0 Z " fill="#000000" transform="translate(262,160)"/>
</svg>
